<svg width="62" height="91" viewBox="0 0 62 91" fill="none" xmlns="http://www.w3.org/2000/svg">
<rect x="1" y="2" width="60" height="88" rx="5" fill="url(#paint0_linear_117_31)" stroke="url(#paint1_linear_117_31)" stroke-width="2"/>
<path d="M13.449 16.739H8.723L7.941 19H5.442L9.709 7.117H12.48L16.747 19H14.231L13.449 16.739ZM12.803 14.835L11.086 9.871L9.369 14.835H12.803Z" fill="white"/>
<path d="M44.158 72.906H27.571L24.721 81H17.938L32.131 41.328H39.655L53.848 81H47.008L44.158 72.906ZM42.334 67.605L35.893 49.194L29.395 67.605H42.334Z" fill="white"/>
<path d="M15.4584 29.5L10.5001 36.5833L5.54175 29.5L10.5001 22.4167" fill="white"/>
<defs>
<linearGradient id="paint0_linear_117_31" x1="0" y1="1" x2="60" y2="89" gradientUnits="userSpaceOnUse">
<stop stop-color="#5A3B93"/>
<stop offset="0.440483" stop-color="#401E7D"/>
<stop offset="1" stop-color="#2E1065"/>
</linearGradient>
<linearGradient id="paint1_linear_117_31" x1="31" y1="1" x2="31" y2="91" gradientUnits="userSpaceOnUse">
<stop stop-color="#111111" stop-opacity="0"/>
<stop offset="1" stop-color="white" stop-opacity="0.3"/>
</linearGradient>
</defs>
</svg>
