<svg width="62" height="91" viewBox="0 0 62 91" fill="none" xmlns="http://www.w3.org/2000/svg">
<rect x="1" y="2" width="60" height="88" rx="5" fill="url(#paint0_linear_117_161)" stroke="url(#paint1_linear_117_161)" stroke-width="2"/>
<path d="M5.935 9.871C5.99167 8.73767 6.38833 7.865 7.125 7.253C7.873 6.62967 8.85333 6.318 10.066 6.318C10.8933 6.318 11.6017 6.46533 12.191 6.76C12.7803 7.04333 13.2223 7.43433 13.517 7.933C13.823 8.42033 13.976 8.97567 13.976 9.599C13.976 10.313 13.789 10.9193 13.415 11.418C13.0523 11.9053 12.616 12.234 12.106 12.404V12.472C12.7633 12.676 13.2733 13.0387 13.636 13.56C14.01 14.0813 14.197 14.75 14.197 15.566C14.197 16.246 14.0383 16.8523 13.721 17.385C13.415 17.9177 12.956 18.337 12.344 18.643C11.7433 18.9377 11.018 19.085 10.168 19.085C8.88733 19.085 7.84467 18.762 7.04 18.116C6.23533 17.47 5.81033 16.518 5.765 15.26H8.077C8.09967 15.8153 8.28667 16.263 8.638 16.603C9.00067 16.9317 9.49367 17.096 10.117 17.096C10.695 17.096 11.137 16.9373 11.443 16.62C11.7603 16.2913 11.919 15.872 11.919 15.362C11.919 14.682 11.7037 14.1947 11.273 13.9C10.8423 13.6053 10.1737 13.458 9.267 13.458H8.774V11.503H9.267C10.8763 11.503 11.681 10.9647 11.681 9.888C11.681 9.40067 11.5337 9.021 11.239 8.749C10.9557 8.477 10.542 8.341 9.998 8.341C9.46533 8.341 9.05167 8.48833 8.757 8.783C8.47367 9.06633 8.30933 9.429 8.264 9.871H5.935Z" fill="white"/>
<path d="M27.306 49.707C27.534 46.173 28.883 43.418 31.353 41.442C33.861 39.466 37.053 38.478 40.929 38.478C43.589 38.478 45.888 38.953 47.826 39.903C49.764 40.853 51.227 42.145 52.215 43.779C53.203 45.413 53.697 47.256 53.697 49.308C53.697 51.664 53.07 53.678 51.816 55.35C50.562 57.022 49.061 58.143 47.313 58.713V58.941C49.555 59.625 51.303 60.879 52.557 62.703C53.811 64.489 54.438 66.788 54.438 69.6C54.438 71.842 53.925 73.837 52.899 75.585C51.873 77.333 50.353 78.72 48.339 79.746C46.325 80.734 43.912 81.228 41.1 81.228C36.996 81.228 33.614 80.183 30.954 78.093C28.332 75.965 26.926 72.925 26.736 68.973H33.006C33.158 70.987 33.937 72.64 35.343 73.932C36.749 75.186 38.649 75.813 41.043 75.813C43.361 75.813 45.147 75.186 46.401 73.932C47.655 72.64 48.282 70.987 48.282 68.973C48.282 66.313 47.427 64.432 45.717 63.33C44.045 62.19 41.461 61.62 37.965 61.62H36.483V56.262H38.022C41.1 56.224 43.437 55.711 45.033 54.723C46.667 53.735 47.484 52.177 47.484 50.049C47.484 48.225 46.895 46.781 45.717 45.717C44.539 44.615 42.867 44.064 40.701 44.064C38.573 44.064 36.92 44.615 35.742 45.717C34.564 46.781 33.861 48.111 33.633 49.707H27.306Z" fill="white"/>
<path d="M15.4584 29.5L10.5001 36.5833L5.54175 29.5L10.5001 22.4166" fill="white"/>
<defs>
<linearGradient id="paint0_linear_117_161" x1="0" y1="1" x2="60" y2="89" gradientUnits="userSpaceOnUse">
<stop stop-color="#5A3B93"/>
<stop offset="0.440483" stop-color="#401E7D"/>
<stop offset="1" stop-color="#2E1065"/>
</linearGradient>
<linearGradient id="paint1_linear_117_161" x1="31" y1="1" x2="31" y2="91" gradientUnits="userSpaceOnUse">
<stop stop-color="#111111" stop-opacity="0"/>
<stop offset="1" stop-color="white" stop-opacity="0.3"/>
</linearGradient>
</defs>
</svg>
