<svg width="62" height="91" viewBox="0 0 62 91" fill="none" xmlns="http://www.w3.org/2000/svg">
<rect x="1" y="2" width="60" height="88" rx="5" fill="url(#paint0_linear_117_167)" stroke="url(#paint1_linear_117_167)" stroke-width="2"/>
<path d="M6.649 16.314C7.737 15.4073 8.604 14.6537 9.25 14.053C9.896 13.441 10.4343 12.8063 10.865 12.149C11.2957 11.4917 11.511 10.8457 11.511 10.211C11.511 9.633 11.375 9.17967 11.103 8.851C10.831 8.52233 10.4117 8.358 9.845 8.358C9.27833 8.358 8.842 8.55067 8.536 8.936C8.23 9.31 8.07133 9.82567 8.06 10.483H5.748C5.79333 9.123 6.19567 8.09167 6.955 7.389C7.72567 6.68633 8.70033 6.335 9.879 6.335C11.171 6.335 12.1627 6.68067 12.854 7.372C13.5453 8.052 13.891 8.953 13.891 10.075C13.891 10.959 13.653 11.8033 13.177 12.608C12.701 13.4127 12.157 14.1153 11.545 14.716C10.933 15.3053 10.134 16.0193 9.148 16.858H14.163V18.83H5.765V17.062L6.649 16.314Z" fill="white"/>
<path d="M31.011 72.165C34.659 69.011 37.528 66.427 39.618 64.413C41.746 62.361 43.513 60.233 44.919 58.029C46.325 55.825 47.028 53.621 47.028 51.417C47.028 49.137 46.477 47.351 45.375 46.059C44.311 44.767 42.62 44.121 40.302 44.121C38.06 44.121 36.312 44.843 35.058 46.287C33.842 47.693 33.196 49.593 33.12 51.987H26.85C26.964 47.655 28.256 44.349 30.726 42.069C33.234 39.751 36.407 38.592 40.245 38.592C44.387 38.592 47.617 39.732 49.935 42.012C52.291 44.292 53.469 47.332 53.469 51.132C53.469 53.868 52.766 56.509 51.36 59.055C49.992 61.563 48.339 63.824 46.401 65.838C44.501 67.814 42.069 70.113 39.105 72.735L36.54 75.015H54.609V80.43H26.907V75.699L31.011 72.165Z" fill="white"/>
<path d="M15.4584 29.5L10.5001 36.5833L5.54175 29.5L10.5001 22.4166" fill="white"/>
<defs>
<linearGradient id="paint0_linear_117_167" x1="0" y1="1" x2="60" y2="89" gradientUnits="userSpaceOnUse">
<stop stop-color="#5A3B93"/>
<stop offset="0.440483" stop-color="#401E7D"/>
<stop offset="1" stop-color="#2E1065"/>
</linearGradient>
<linearGradient id="paint1_linear_117_167" x1="31" y1="1" x2="31" y2="91" gradientUnits="userSpaceOnUse">
<stop stop-color="#111111" stop-opacity="0"/>
<stop offset="1" stop-color="white" stop-opacity="0.3"/>
</linearGradient>
</defs>
</svg>
