<svg width="62" height="91" viewBox="0 0 62 91" fill="none" xmlns="http://www.w3.org/2000/svg">
<rect x="1" y="2" width="60" height="88" rx="5" fill="url(#paint0_linear_117_149)" stroke="url(#paint1_linear_117_149)" stroke-width="2"/>
<path d="M14.231 8.664H8.723V11.571C8.961 11.2763 9.301 11.0383 9.743 10.857C10.185 10.6643 10.6553 10.568 11.154 10.568C12.0607 10.568 12.803 10.7663 13.381 11.163C13.959 11.5597 14.3783 12.0697 14.639 12.693C14.8997 13.305 15.03 13.9623 15.03 14.665C15.03 15.9683 14.656 17.0167 13.908 17.81C13.1713 18.6033 12.1173 19 10.746 19C9.454 19 8.42267 18.677 7.652 18.031C6.88133 17.385 6.445 16.5407 6.343 15.498H8.655C8.757 15.9513 8.98367 16.314 9.335 16.586C9.69767 16.858 10.1567 16.994 10.712 16.994C11.3807 16.994 11.885 16.7843 12.225 16.365C12.565 15.9457 12.735 15.3903 12.735 14.699C12.735 13.9963 12.5593 13.4637 12.208 13.101C11.868 12.727 11.3637 12.54 10.695 12.54C10.219 12.54 9.82233 12.659 9.505 12.897C9.18767 13.135 8.961 13.4523 8.825 13.849H6.547V6.573H14.231V8.664Z" fill="white"/>
<path d="M50.21 45.033H31.115V56.376C31.913 55.312 33.091 54.419 34.649 53.697C36.245 52.975 37.936 52.614 39.722 52.614C42.914 52.614 45.498 53.298 47.474 54.666C49.488 56.034 50.913 57.763 51.749 59.853C52.623 61.943 53.06 64.147 53.06 66.465C53.06 69.277 52.509 71.785 51.407 73.989C50.343 76.155 48.728 77.865 46.562 79.119C44.434 80.373 41.812 81 38.696 81C34.554 81 31.229 79.974 28.721 77.922C26.213 75.87 24.712 73.153 24.218 69.771H30.545C30.963 71.557 31.894 72.982 33.338 74.046C34.782 75.072 36.587 75.585 38.753 75.585C41.451 75.585 43.465 74.768 44.795 73.134C46.163 71.5 46.847 69.334 46.847 66.636C46.847 63.9 46.163 61.81 44.795 60.366C43.427 58.884 41.413 58.143 38.753 58.143C36.891 58.143 35.314 58.618 34.022 59.568C32.768 60.48 31.856 61.734 31.286 63.33H25.13V39.333H50.21V45.033Z" fill="white"/>
<path d="M15.4584 29.5L10.5001 36.5834L5.54175 29.5L10.5001 22.4167" fill="white"/>
<defs>
<linearGradient id="paint0_linear_117_149" x1="0" y1="1" x2="60" y2="89" gradientUnits="userSpaceOnUse">
<stop stop-color="#5A3B93"/>
<stop offset="0.440483" stop-color="#401E7D"/>
<stop offset="1" stop-color="#2E1065"/>
</linearGradient>
<linearGradient id="paint1_linear_117_149" x1="31" y1="1" x2="31" y2="91" gradientUnits="userSpaceOnUse">
<stop stop-color="#111111" stop-opacity="0"/>
<stop offset="1" stop-color="white" stop-opacity="0.3"/>
</linearGradient>
</defs>
</svg>
