<svg width="62" height="90" viewBox="0 0 62 90" fill="none" xmlns="http://www.w3.org/2000/svg">
<rect x="1" y="1" width="60" height="88" rx="5" fill="url(#paint0_linear_117_179)" stroke="url(#paint1_linear_117_179)" stroke-width="2"/>
<path d="M9.82564 13.8466H11.854L13.0554 15.4041L13.9126 16.4183L15.9712 19.0625H13.7979L12.3974 17.2876L11.7997 16.4425L9.82564 13.8466ZM16.267 11.8182C16.267 13.1503 16.0175 14.2913 15.5185 15.2411C15.0234 16.1869 14.3473 16.9113 13.4901 17.4144C12.6368 17.9175 11.6689 18.169 10.5863 18.169C9.50367 18.169 8.53374 17.9175 7.67649 17.4144C6.82327 16.9073 6.14714 16.1809 5.64808 15.2351C5.15305 14.2853 4.90554 13.1463 4.90554 11.8182C4.90554 10.486 5.15305 9.34706 5.64808 8.40128C6.14714 7.45147 6.82327 6.72502 7.67649 6.22195C8.53374 5.71887 9.50367 5.46733 10.5863 5.46733C11.6689 5.46733 12.6368 5.71887 13.4901 6.22195C14.3473 6.72502 15.0234 7.45147 15.5185 8.40128C16.0175 9.34706 16.267 10.486 16.267 11.8182ZM14.0153 11.8182C14.0153 10.8804 13.8684 10.0896 13.5746 9.44567C13.2848 8.7977 12.8823 8.30871 12.3672 7.97869C11.852 7.64465 11.2584 7.47763 10.5863 7.47763C9.91418 7.47763 9.32055 7.64465 8.8054 7.97869C8.29025 8.30871 7.88577 8.7977 7.59197 9.44567C7.3022 10.0896 7.15732 10.8804 7.15732 11.8182C7.15732 12.7559 7.3022 13.5488 7.59197 14.1967C7.88577 14.8407 8.29025 15.3297 8.8054 15.6637C9.32055 15.9937 9.91418 16.1587 10.5863 16.1587C11.2584 16.1587 11.852 15.9937 12.3672 15.6637C12.8823 15.3297 13.2848 14.8407 13.5746 14.1967C13.8684 13.5488 14.0153 12.7559 14.0153 11.8182Z" fill="white"/>
<path d="M33.7962 62.5597H39.9496L44.2812 68.207L46.3256 70.717L53.228 79.7244H46.8317L42.2166 73.7127L40.6378 71.5266L33.7962 62.5597ZM54.5639 55.2727C54.5639 59.6989 53.7543 63.5043 52.1349 66.6889C50.5156 69.8601 48.2958 72.3026 45.4755 74.0163C42.6687 75.7166 39.4773 76.5668 35.9013 76.5668C32.3118 76.5668 29.1069 75.7166 26.2866 74.0163C23.4798 72.3026 21.2667 69.8533 19.6474 66.6687C18.0281 63.484 17.2184 59.6854 17.2184 55.2727C17.2184 50.8466 18.0281 47.0479 19.6474 43.8768C21.2667 40.6921 23.4798 38.2496 26.2866 36.5494C29.1069 34.8356 32.3118 33.9787 35.9013 33.9787C39.4773 33.9787 42.6687 34.8356 45.4755 36.5494C48.2958 38.2496 50.5156 40.6921 52.1349 43.8768C53.7543 47.0479 54.5639 50.8466 54.5639 55.2727ZM48.37 55.2727C48.37 51.8991 47.8235 49.0586 46.7305 46.7511C45.6509 44.43 44.1665 42.6758 42.2773 41.4883C40.4016 40.2873 38.2763 39.6868 35.9013 39.6868C33.5128 39.6868 31.3807 40.2873 29.505 41.4883C27.6293 42.6758 26.1449 44.43 25.0518 46.7511C23.9723 49.0586 23.4325 51.8991 23.4325 55.2727C23.4325 58.6463 23.9723 61.4936 25.0518 63.8146C26.1449 66.1222 27.6293 67.8764 29.505 69.0774C31.3807 70.2649 33.5128 70.8587 35.9013 70.8587C38.2763 70.8587 40.4016 70.2649 42.2773 69.0774C44.1665 67.8764 45.6509 66.1222 46.7305 63.8146C47.8235 61.4936 48.37 58.6463 48.37 55.2727Z" fill="white"/>
<path d="M15.4584 28.5L10.5001 35.5833L5.54175 28.5L10.5001 21.4166" fill="white"/>
<defs>
<linearGradient id="paint0_linear_117_179" x1="0" y1="0" x2="60" y2="88" gradientUnits="userSpaceOnUse">
<stop stop-color="#5A3B93"/>
<stop offset="0.440483" stop-color="#401E7D"/>
<stop offset="1" stop-color="#2E1065"/>
</linearGradient>
<linearGradient id="paint1_linear_117_179" x1="31" y1="0" x2="31" y2="90" gradientUnits="userSpaceOnUse">
<stop stop-color="#111111" stop-opacity="0"/>
<stop offset="1" stop-color="white" stop-opacity="0.3"/>
</linearGradient>
</defs>
</svg>
