<svg width="62" height="91" viewBox="0 0 62 91" fill="none" xmlns="http://www.w3.org/2000/svg">
<rect x="1" y="2" width="60" height="88" rx="5" fill="url(#paint0_linear_117_143)" stroke="url(#paint1_linear_117_143)" stroke-width="2"/>
<path d="M12.327 9.701C12.2137 9.225 12.0153 8.868 11.732 8.63C11.46 8.392 11.0633 8.273 10.542 8.273C9.76 8.273 9.182 8.59033 8.808 9.225C8.44533 9.84833 8.25833 10.8683 8.247 12.285C8.519 11.8317 8.91567 11.4803 9.437 11.231C9.95833 10.9703 10.525 10.84 11.137 10.84C11.8737 10.84 12.5253 10.9987 13.092 11.316C13.6587 11.6333 14.1007 12.098 14.418 12.71C14.7353 13.3107 14.894 14.036 14.894 14.886C14.894 15.6907 14.7297 16.4103 14.401 17.045C14.0837 17.6683 13.6133 18.1557 12.99 18.507C12.3667 18.8583 11.6243 19.034 10.763 19.034C9.58433 19.034 8.655 18.7733 7.975 18.252C7.30633 17.7307 6.836 17.0053 6.564 16.076C6.30333 15.1353 6.173 13.9793 6.173 12.608C6.173 10.534 6.53 8.97 7.244 7.916C7.958 6.85067 9.08567 6.318 10.627 6.318C11.817 6.318 12.7407 6.641 13.398 7.287C14.0553 7.933 14.435 8.73767 14.537 9.701H12.327ZM10.593 12.795C9.99233 12.795 9.488 12.9707 9.08 13.322C8.672 13.6733 8.468 14.1833 8.468 14.852C8.468 15.5207 8.655 16.0477 9.029 16.433C9.41433 16.8183 9.95267 17.011 10.644 17.011C11.256 17.011 11.7377 16.824 12.089 16.45C12.4517 16.076 12.633 15.5717 12.633 14.937C12.633 14.2797 12.4573 13.7583 12.106 13.373C11.766 12.9877 11.2617 12.795 10.593 12.795Z" fill="white"/>
<path d="M45.764 49.08C45.346 47.332 44.586 46.021 43.484 45.147C42.382 44.273 40.843 43.836 38.867 43.836C35.865 43.836 33.623 44.995 32.141 47.313C30.659 49.593 29.88 53.393 29.804 58.713C30.792 57.041 32.236 55.749 34.136 54.837C36.036 53.925 38.088 53.469 40.292 53.469C42.8 53.469 45.004 54.02 46.904 55.122C48.842 56.186 50.343 57.744 51.407 59.796C52.509 61.848 53.06 64.299 53.06 67.149C53.06 69.809 52.528 72.184 51.464 74.274C50.438 76.364 48.899 78.017 46.847 79.233C44.795 80.411 42.325 81 39.437 81C35.523 81 32.445 80.145 30.203 78.435C27.999 76.687 26.441 74.236 25.529 71.082C24.655 67.928 24.218 63.995 24.218 59.283C24.218 45.375 29.12 38.421 38.924 38.421C42.724 38.421 45.707 39.447 47.873 41.499C50.077 43.551 51.369 46.078 51.749 49.08H45.764ZM38.867 58.941C36.549 58.941 34.573 59.644 32.939 61.05C31.343 62.418 30.545 64.413 30.545 67.035C30.545 69.657 31.286 71.747 32.768 73.305C34.288 74.825 36.397 75.585 39.095 75.585C41.489 75.585 43.37 74.844 44.738 73.362C46.144 71.88 46.847 69.904 46.847 67.434C46.847 64.85 46.163 62.798 44.795 61.278C43.465 59.72 41.489 58.941 38.867 58.941Z" fill="white"/>
<path d="M15.4584 29.5L10.5001 36.5834L5.54175 29.5L10.5001 22.4167" fill="white"/>
<defs>
<linearGradient id="paint0_linear_117_143" x1="0" y1="1" x2="60" y2="89" gradientUnits="userSpaceOnUse">
<stop stop-color="#5A3B93"/>
<stop offset="0.440483" stop-color="#401E7D"/>
<stop offset="1" stop-color="#2E1065"/>
</linearGradient>
<linearGradient id="paint1_linear_117_143" x1="31" y1="1" x2="31" y2="91" gradientUnits="userSpaceOnUse">
<stop stop-color="#111111" stop-opacity="0"/>
<stop offset="1" stop-color="white" stop-opacity="0.3"/>
</linearGradient>
</defs>
</svg>
