<svg width="62" height="91" viewBox="0 0 62 91" fill="none" xmlns="http://www.w3.org/2000/svg">
<rect x="1" y="2" width="60" height="88" rx="5" fill="url(#paint0_linear_117_131)" stroke="url(#paint1_linear_117_131)" stroke-width="2"/>
<path d="M7.975 12.438C6.84167 11.8487 6.275 10.9363 6.275 9.701C6.275 9.089 6.428 8.53367 6.734 8.035C7.05133 7.525 7.52167 7.12267 8.145 6.828C8.77967 6.522 9.55033 6.369 10.457 6.369C11.3637 6.369 12.1287 6.522 12.752 6.828C13.3867 7.12267 13.857 7.525 14.163 8.035C14.4803 8.53367 14.639 9.089 14.639 9.701C14.639 10.3243 14.486 10.874 14.18 11.35C13.874 11.8147 13.466 12.1773 12.956 12.438C13.5793 12.71 14.0667 13.1067 14.418 13.628C14.7693 14.1493 14.945 14.767 14.945 15.481C14.945 16.2517 14.7467 16.926 14.35 17.504C13.9647 18.0707 13.432 18.507 12.752 18.813C12.072 19.119 11.307 19.272 10.457 19.272C9.607 19.272 8.842 19.119 8.162 18.813C7.49333 18.507 6.96067 18.0707 6.564 17.504C6.17867 16.926 5.986 16.2517 5.986 15.481C5.986 14.767 6.16167 14.1493 6.513 13.628C6.86433 13.0953 7.35167 12.6987 7.975 12.438ZM12.327 10.041C12.327 9.48567 12.157 9.055 11.817 8.749C11.4883 8.443 11.035 8.29 10.457 8.29C9.89033 8.29 9.437 8.443 9.097 8.749C8.76833 9.055 8.604 9.49133 8.604 10.058C8.604 10.568 8.774 10.976 9.114 11.282C9.46533 11.588 9.913 11.741 10.457 11.741C11.001 11.741 11.4487 11.588 11.8 11.282C12.1513 10.9647 12.327 10.551 12.327 10.041ZM10.457 13.475C9.811 13.475 9.284 13.6393 8.876 13.968C8.47933 14.2967 8.281 14.767 8.281 15.379C8.281 15.9457 8.47367 16.4103 8.859 16.773C9.25567 17.1243 9.78833 17.3 10.457 17.3C11.1257 17.3 11.6527 17.1187 12.038 16.756C12.4233 16.3933 12.616 15.9343 12.616 15.379C12.616 14.7783 12.4177 14.3137 12.021 13.985C11.6243 13.645 11.103 13.475 10.457 13.475Z" fill="white"/>
<path d="M30.431 59.283C26.479 57.307 24.503 54.191 24.503 49.935C24.503 47.883 25.016 46.002 26.042 44.292C27.068 42.582 28.607 41.233 30.659 40.245C32.711 39.219 35.219 38.706 38.183 38.706C41.109 38.706 43.598 39.219 45.65 40.245C47.74 41.233 49.298 42.582 50.324 44.292C51.35 46.002 51.863 47.883 51.863 49.935C51.863 52.063 51.312 53.944 50.21 55.578C49.146 57.174 47.721 58.409 45.935 59.283C48.101 60.081 49.811 61.392 51.065 63.216C52.319 65.002 52.946 67.111 52.946 69.543C52.946 72.013 52.319 74.198 51.065 76.098C49.811 77.998 48.063 79.461 45.821 80.487C43.579 81.513 41.033 82.026 38.183 82.026C35.333 82.026 32.787 81.513 30.545 80.487C28.341 79.461 26.612 77.998 25.358 76.098C24.104 74.198 23.477 72.013 23.477 69.543C23.477 67.073 24.104 64.945 25.358 63.159C26.612 61.373 28.303 60.081 30.431 59.283ZM45.65 50.733C45.65 48.605 44.985 46.971 43.655 45.831C42.325 44.691 40.501 44.121 38.183 44.121C35.903 44.121 34.098 44.691 32.768 45.831C31.438 46.971 30.773 48.624 30.773 50.79C30.773 52.69 31.457 54.248 32.825 55.464C34.231 56.642 36.017 57.231 38.183 57.231C40.349 57.231 42.135 56.623 43.541 55.407C44.947 54.191 45.65 52.633 45.65 50.733ZM38.183 62.133C35.675 62.133 33.623 62.76 32.027 64.014C30.469 65.23 29.69 66.997 29.69 69.315C29.69 71.481 30.45 73.248 31.97 74.616C33.49 75.946 35.561 76.611 38.183 76.611C40.767 76.611 42.8 75.927 44.282 74.559C45.802 73.191 46.562 71.443 46.562 69.315C46.562 67.035 45.783 65.268 44.225 64.014C42.705 62.76 40.691 62.133 38.183 62.133Z" fill="white"/>
<path d="M15.4584 29.5L10.5001 36.5833L5.54175 29.5L10.5001 22.4167" fill="white"/>
<defs>
<linearGradient id="paint0_linear_117_131" x1="0" y1="1" x2="60" y2="89" gradientUnits="userSpaceOnUse">
<stop stop-color="#5A3B93"/>
<stop offset="0.440483" stop-color="#401E7D"/>
<stop offset="1" stop-color="#2E1065"/>
</linearGradient>
<linearGradient id="paint1_linear_117_131" x1="31" y1="1" x2="31" y2="91" gradientUnits="userSpaceOnUse">
<stop stop-color="#111111" stop-opacity="0"/>
<stop offset="1" stop-color="white" stop-opacity="0.3"/>
</linearGradient>
</defs>
</svg>
