<svg width="62" height="91" viewBox="0 0 62 91" fill="none" xmlns="http://www.w3.org/2000/svg">
<rect x="1" y="2" width="60" height="88" rx="5" fill="url(#paint0_linear_117_125)" stroke="url(#paint1_linear_117_125)" stroke-width="2"/>
<path d="M8.655 15.515C8.74567 16.0137 8.94967 16.399 9.267 16.671C9.59567 16.9317 10.032 17.062 10.576 17.062C11.2787 17.062 11.7887 16.773 12.106 16.195C12.4233 15.6057 12.582 14.6197 12.582 13.237C12.3213 13.5997 11.953 13.883 11.477 14.087C11.0123 14.291 10.508 14.393 9.964 14.393C9.23867 14.393 8.58133 14.2457 7.992 13.951C7.414 13.645 6.955 13.1973 6.615 12.608C6.275 12.0073 6.105 11.282 6.105 10.432C6.105 9.174 6.479 8.17667 7.227 7.44C7.975 6.692 8.995 6.318 10.287 6.318C11.8963 6.318 13.0297 6.83367 13.687 7.865C14.3557 8.89633 14.69 10.449 14.69 12.523C14.69 13.9963 14.5597 15.2033 14.299 16.144C14.0497 17.0847 13.6133 17.7987 12.99 18.286C12.378 18.7733 11.5393 19.017 10.474 19.017C9.63533 19.017 8.92133 18.8583 8.332 18.541C7.74267 18.2123 7.28933 17.7873 6.972 17.266C6.666 16.7333 6.49033 16.1497 6.445 15.515H8.655ZM10.457 12.455C11.0463 12.455 11.511 12.2737 11.851 11.911C12.191 11.5483 12.361 11.061 12.361 10.449C12.361 9.78033 12.1797 9.26467 11.817 8.902C11.4657 8.528 10.984 8.341 10.372 8.341C9.76 8.341 9.27267 8.53367 8.91 8.919C8.55867 9.293 8.383 9.79167 8.383 10.415C8.383 11.0157 8.553 11.5087 8.893 11.894C9.24433 12.268 9.76567 12.455 10.457 12.455Z" fill="white"/>
<path d="M31.514 69.714C31.894 71.614 32.711 73.058 33.965 74.046C35.219 75.034 36.91 75.528 39.038 75.528C41.736 75.528 43.712 74.464 44.966 72.336C46.22 70.208 46.847 66.579 46.847 61.449C45.935 62.741 44.643 63.748 42.971 64.47C41.337 65.154 39.551 65.496 37.613 65.496C35.143 65.496 32.901 65.002 30.887 64.014C28.873 62.988 27.277 61.487 26.099 59.511C24.959 57.497 24.389 55.065 24.389 52.215C24.389 48.035 25.605 44.71 28.037 42.24C30.507 39.732 33.889 38.478 38.183 38.478C43.351 38.478 47.018 40.207 49.184 43.665C51.388 47.085 52.49 52.348 52.49 59.454C52.49 64.356 52.072 68.365 51.236 71.481C50.438 74.597 49.032 76.953 47.018 78.549C45.004 80.145 42.211 80.943 38.639 80.943C34.573 80.943 31.438 79.879 29.234 77.751C27.03 75.623 25.795 72.944 25.529 69.714H31.514ZM38.753 60.024C41.033 60.024 42.819 59.321 44.111 57.915C45.441 56.471 46.106 54.571 46.106 52.215C46.106 49.593 45.403 47.56 43.997 46.116C42.629 44.634 40.748 43.893 38.354 43.893C35.96 43.893 34.06 44.653 32.654 46.173C31.286 47.655 30.602 49.612 30.602 52.044C30.602 54.362 31.267 56.281 32.597 57.801C33.965 59.283 36.017 60.024 38.753 60.024Z" fill="white"/>
<path d="M15.4584 29.5L10.5001 36.5833L5.54175 29.5L10.5001 22.4167" fill="white"/>
<defs>
<linearGradient id="paint0_linear_117_125" x1="0" y1="1" x2="60" y2="89" gradientUnits="userSpaceOnUse">
<stop stop-color="#5A3B93"/>
<stop offset="0.440483" stop-color="#401E7D"/>
<stop offset="1" stop-color="#2E1065"/>
</linearGradient>
<linearGradient id="paint1_linear_117_125" x1="31" y1="1" x2="31" y2="91" gradientUnits="userSpaceOnUse">
<stop stop-color="#111111" stop-opacity="0"/>
<stop offset="1" stop-color="white" stop-opacity="0.3"/>
</linearGradient>
</defs>
</svg>
