<svg width="62" height="91" viewBox="0 0 62 91" fill="none" xmlns="http://www.w3.org/2000/svg">
<rect x="1" y="2" width="60" height="88" rx="5" fill="url(#paint0_linear_117_89)" stroke="url(#paint1_linear_117_89)" stroke-width="2"/>
<path d="M7.935 9.871C7.99167 8.73767 8.38833 7.865 9.125 7.253C9.873 6.62967 10.8533 6.318 12.066 6.318C12.8933 6.318 13.6017 6.46533 14.191 6.76C14.7803 7.04333 15.2223 7.43433 15.517 7.933C15.823 8.42033 15.976 8.97567 15.976 9.599C15.976 10.313 15.789 10.9193 15.415 11.418C15.0523 11.9053 14.616 12.234 14.106 12.404V12.472C14.7633 12.676 15.2733 13.0387 15.636 13.56C16.01 14.0813 16.197 14.75 16.197 15.566C16.197 16.246 16.0383 16.8523 15.721 17.385C15.415 17.9177 14.956 18.337 14.344 18.643C13.7433 18.9377 13.018 19.085 12.168 19.085C10.8873 19.085 9.84467 18.762 9.04 18.116C8.23533 17.47 7.81033 16.518 7.765 15.26H10.077C10.0997 15.8153 10.2867 16.263 10.638 16.603C11.0007 16.9317 11.4937 17.096 12.117 17.096C12.695 17.096 13.137 16.9373 13.443 16.62C13.7603 16.2913 13.919 15.872 13.919 15.362C13.919 14.682 13.7037 14.1947 13.273 13.9C12.8423 13.6053 12.1737 13.458 11.267 13.458H10.774V11.503H11.267C12.8763 11.503 13.681 10.9647 13.681 9.888C13.681 9.40067 13.5337 9.021 13.239 8.749C12.9557 8.477 12.542 8.341 11.998 8.341C11.4653 8.341 11.0517 8.48833 10.757 8.783C10.4737 9.06633 10.3093 9.429 10.264 9.871H7.935Z" fill="white"/>
<path d="M26.306 49.707C26.534 46.173 27.883 43.418 30.353 41.442C32.861 39.466 36.053 38.478 39.929 38.478C42.589 38.478 44.888 38.953 46.826 39.903C48.764 40.853 50.227 42.145 51.215 43.779C52.203 45.413 52.697 47.256 52.697 49.308C52.697 51.664 52.07 53.678 50.816 55.35C49.562 57.022 48.061 58.143 46.313 58.713V58.941C48.555 59.625 50.303 60.879 51.557 62.703C52.811 64.489 53.438 66.788 53.438 69.6C53.438 71.842 52.925 73.837 51.899 75.585C50.873 77.333 49.353 78.72 47.339 79.746C45.325 80.734 42.912 81.228 40.1 81.228C35.996 81.228 32.614 80.183 29.954 78.093C27.332 75.965 25.926 72.925 25.736 68.973H32.006C32.158 70.987 32.937 72.64 34.343 73.932C35.749 75.186 37.649 75.813 40.043 75.813C42.361 75.813 44.147 75.186 45.401 73.932C46.655 72.64 47.282 70.987 47.282 68.973C47.282 66.313 46.427 64.432 44.717 63.33C43.045 62.19 40.461 61.62 36.965 61.62H35.483V56.262H37.022C40.1 56.224 42.437 55.711 44.033 54.723C45.667 53.735 46.484 52.177 46.484 50.049C46.484 48.225 45.895 46.781 44.717 45.717C43.539 44.615 41.867 44.064 39.701 44.064C37.573 44.064 35.92 44.615 34.742 45.717C33.564 46.781 32.861 48.111 32.633 49.707H26.306Z" fill="white"/>
<path d="M8 23C10.21 23 12 24.755 12 26.92C12 24.755 13.79 23 16 23C18.21 23 20 24.755 20 26.92C20 30.183 16.766 31.334 12.392 36.528C12.3438 36.585 12.2838 36.6309 12.2161 36.6623C12.1484 36.6938 12.0747 36.7101 12 36.7101C11.9253 36.7101 11.8516 36.6938 11.7839 36.6623C11.7162 36.6309 11.6562 36.585 11.608 36.528C7.234 31.334 4 30.183 4 26.92C4 24.755 5.79 23 8 23Z" fill="white"/>
<defs>
<linearGradient id="paint0_linear_117_89" x1="0" y1="1" x2="60" y2="89" gradientUnits="userSpaceOnUse">
<stop stop-color="#A60C0C"/>
<stop offset="0.531374" stop-color="#740000"/>
<stop offset="1" stop-color="#740000"/>
</linearGradient>
<linearGradient id="paint1_linear_117_89" x1="31" y1="1" x2="31" y2="91" gradientUnits="userSpaceOnUse">
<stop stop-color="#111111" stop-opacity="0"/>
<stop offset="1" stop-color="white" stop-opacity="0.3"/>
</linearGradient>
</defs>
</svg>
