<svg width="62" height="91" viewBox="0 0 62 91" fill="none" xmlns="http://www.w3.org/2000/svg">
<rect x="1" y="2" width="60" height="88" rx="5" fill="url(#paint0_linear_117_53)" stroke="url(#paint1_linear_117_53)" stroke-width="2"/>
<path d="M9.655 15.515C9.74567 16.0137 9.94967 16.399 10.267 16.671C10.5957 16.9317 11.032 17.062 11.576 17.062C12.2787 17.062 12.7887 16.773 13.106 16.195C13.4233 15.6057 13.582 14.6197 13.582 13.237C13.3213 13.5997 12.953 13.883 12.477 14.087C12.0123 14.291 11.508 14.393 10.964 14.393C10.2387 14.393 9.58133 14.2457 8.992 13.951C8.414 13.645 7.955 13.1973 7.615 12.608C7.275 12.0073 7.105 11.282 7.105 10.432C7.105 9.174 7.479 8.17667 8.227 7.44C8.975 6.692 9.995 6.318 11.287 6.318C12.8963 6.318 14.0297 6.83367 14.687 7.865C15.3557 8.89633 15.69 10.449 15.69 12.523C15.69 13.9963 15.5597 15.2033 15.299 16.144C15.0497 17.0847 14.6133 17.7987 13.99 18.286C13.378 18.7733 12.5393 19.017 11.474 19.017C10.6353 19.017 9.92133 18.8583 9.332 18.541C8.74267 18.2123 8.28933 17.7873 7.972 17.266C7.666 16.7333 7.49033 16.1497 7.445 15.515H9.655ZM11.457 12.455C12.0463 12.455 12.511 12.2737 12.851 11.911C13.191 11.5483 13.361 11.061 13.361 10.449C13.361 9.78033 13.1797 9.26467 12.817 8.902C12.4657 8.528 11.984 8.341 11.372 8.341C10.76 8.341 10.2727 8.53367 9.91 8.919C9.55867 9.293 9.383 9.79167 9.383 10.415C9.383 11.0157 9.553 11.5087 9.893 11.894C10.2443 12.268 10.7657 12.455 11.457 12.455Z" fill="white"/>
<path d="M31.514 69.714C31.894 71.614 32.711 73.058 33.965 74.046C35.219 75.034 36.91 75.528 39.038 75.528C41.736 75.528 43.712 74.464 44.966 72.336C46.22 70.208 46.847 66.579 46.847 61.449C45.935 62.741 44.643 63.748 42.971 64.47C41.337 65.154 39.551 65.496 37.613 65.496C35.143 65.496 32.901 65.002 30.887 64.014C28.873 62.988 27.277 61.487 26.099 59.511C24.959 57.497 24.389 55.065 24.389 52.215C24.389 48.035 25.605 44.71 28.037 42.24C30.507 39.732 33.889 38.478 38.183 38.478C43.351 38.478 47.018 40.207 49.184 43.665C51.388 47.085 52.49 52.348 52.49 59.454C52.49 64.356 52.072 68.365 51.236 71.481C50.438 74.597 49.032 76.953 47.018 78.549C45.004 80.145 42.211 80.943 38.639 80.943C34.573 80.943 31.438 79.879 29.234 77.751C27.03 75.623 25.795 72.944 25.529 69.714H31.514ZM38.753 60.024C41.033 60.024 42.819 59.321 44.111 57.915C45.441 56.471 46.106 54.571 46.106 52.215C46.106 49.593 45.403 47.56 43.997 46.116C42.629 44.634 40.748 43.893 38.354 43.893C35.96 43.893 34.06 44.653 32.654 46.173C31.286 47.655 30.602 49.612 30.602 52.044C30.602 54.362 31.267 56.281 32.597 57.801C33.965 59.283 36.017 60.024 38.753 60.024Z" fill="white"/>
<path d="M8 23C10.21 23 12 24.755 12 26.92C12 24.755 13.79 23 16 23C18.21 23 20 24.755 20 26.92C20 30.183 16.766 31.334 12.392 36.528C12.3438 36.585 12.2838 36.6309 12.2161 36.6623C12.1484 36.6938 12.0747 36.7101 12 36.7101C11.9253 36.7101 11.8516 36.6938 11.7839 36.6623C11.7162 36.6309 11.6562 36.585 11.608 36.528C7.234 31.334 4 30.183 4 26.92C4 24.755 5.79 23 8 23Z" fill="white"/>
<defs>
<linearGradient id="paint0_linear_117_53" x1="0" y1="1" x2="60" y2="89" gradientUnits="userSpaceOnUse">
<stop stop-color="#A60C0C"/>
<stop offset="0.531374" stop-color="#740000"/>
<stop offset="1" stop-color="#740000"/>
</linearGradient>
<linearGradient id="paint1_linear_117_53" x1="31" y1="1" x2="31" y2="91" gradientUnits="userSpaceOnUse">
<stop stop-color="#111111" stop-opacity="0"/>
<stop offset="1" stop-color="white" stop-opacity="0.3"/>
</linearGradient>
</defs>
</svg>
