<svg width="62" height="91" viewBox="0 0 62 91" fill="none" xmlns="http://www.w3.org/2000/svg">
<rect x="1" y="2" width="60" height="88" rx="5" fill="url(#paint0_linear_117_101)" stroke="url(#paint1_linear_117_101)" stroke-width="2"/>
<path d="M15.092 7.134V15.464C15.092 16.62 14.7577 17.521 14.089 18.167C13.4203 18.8017 12.525 19.119 11.403 19.119C10.2697 19.119 9.35167 18.7903 8.649 18.133C7.95767 17.4757 7.612 16.5577 7.612 15.379H9.992C10.0033 15.889 10.1223 16.2857 10.349 16.569C10.587 16.8523 10.927 16.994 11.369 16.994C11.7997 16.994 12.1283 16.858 12.355 16.586C12.5817 16.314 12.695 15.94 12.695 15.464V7.134H15.092Z" fill="white"/>
<path d="M49.878 39.385V67.942C49.878 71.476 48.795 74.269 46.629 76.321C44.501 78.373 41.689 79.399 38.193 79.399C34.697 79.399 31.866 78.373 29.7 76.321C27.572 74.269 26.508 71.476 26.508 67.942H33.063C33.101 69.69 33.538 71.077 34.374 72.103C35.248 73.129 36.521 73.642 38.193 73.642C39.865 73.642 41.138 73.129 42.012 72.103C42.886 71.039 43.323 69.652 43.323 67.942V39.385H49.878Z" fill="white"/>
<path d="M8 23C10.21 23 12 24.755 12 26.92C12 24.755 13.79 23 16 23C18.21 23 20 24.755 20 26.92C20 30.183 16.766 31.334 12.392 36.528C12.3438 36.585 12.2838 36.6309 12.2161 36.6623C12.1484 36.6938 12.0747 36.7101 12 36.7101C11.9253 36.7101 11.8516 36.6938 11.7839 36.6623C11.7162 36.6309 11.6562 36.585 11.608 36.528C7.234 31.334 4 30.183 4 26.92C4 24.755 5.79 23 8 23Z" fill="white"/>
<defs>
<linearGradient id="paint0_linear_117_101" x1="0" y1="1" x2="60" y2="89" gradientUnits="userSpaceOnUse">
<stop stop-color="#A60C0C"/>
<stop offset="0.531374" stop-color="#740000"/>
<stop offset="1" stop-color="#740000"/>
</linearGradient>
<linearGradient id="paint1_linear_117_101" x1="31" y1="1" x2="31" y2="91" gradientUnits="userSpaceOnUse">
<stop stop-color="#111111" stop-opacity="0"/>
<stop offset="1" stop-color="white" stop-opacity="0.3"/>
</linearGradient>
</defs>
</svg>
