<svg width="62" height="91" viewBox="0 0 62 91" fill="none" xmlns="http://www.w3.org/2000/svg">
<rect x="1" y="2" width="60" height="88" rx="5" fill="url(#paint0_linear_117_95)" stroke="url(#paint1_linear_117_95)" stroke-width="2"/>
<path d="M8.649 16.314C9.737 15.4073 10.604 14.6537 11.25 14.053C11.896 13.441 12.4343 12.8063 12.865 12.149C13.2957 11.4917 13.511 10.8457 13.511 10.211C13.511 9.633 13.375 9.17967 13.103 8.851C12.831 8.52233 12.4117 8.358 11.845 8.358C11.2783 8.358 10.842 8.55067 10.536 8.936C10.23 9.31 10.0713 9.82567 10.06 10.483H7.748C7.79333 9.123 8.19567 8.09167 8.955 7.389C9.72567 6.68633 10.7003 6.335 11.879 6.335C13.171 6.335 14.1627 6.68067 14.854 7.372C15.5453 8.052 15.891 8.953 15.891 10.075C15.891 10.959 15.653 11.8033 15.177 12.608C14.701 13.4127 14.157 14.1153 13.545 14.716C12.933 15.3053 12.134 16.0193 11.148 16.858H16.163V18.83H7.765V17.062L8.649 16.314Z" fill="white"/>
<path d="M30.011 72.165C33.659 69.011 36.528 66.427 38.618 64.413C40.746 62.361 42.513 60.233 43.919 58.029C45.325 55.825 46.028 53.621 46.028 51.417C46.028 49.137 45.477 47.351 44.375 46.059C43.311 44.767 41.62 44.121 39.302 44.121C37.06 44.121 35.312 44.843 34.058 46.287C32.842 47.693 32.196 49.593 32.12 51.987H25.85C25.964 47.655 27.256 44.349 29.726 42.069C32.234 39.751 35.407 38.592 39.245 38.592C43.387 38.592 46.617 39.732 48.935 42.012C51.291 44.292 52.469 47.332 52.469 51.132C52.469 53.868 51.766 56.509 50.36 59.055C48.992 61.563 47.339 63.824 45.401 65.838C43.501 67.814 41.069 70.113 38.105 72.735L35.54 75.015H53.609V80.43H25.907V75.699L30.011 72.165Z" fill="white"/>
<path d="M8 23C10.21 23 12 24.755 12 26.92C12 24.755 13.79 23 16 23C18.21 23 20 24.755 20 26.92C20 30.183 16.766 31.334 12.392 36.528C12.3438 36.585 12.2838 36.6309 12.2161 36.6623C12.1484 36.6938 12.0747 36.7101 12 36.7101C11.9253 36.7101 11.8516 36.6938 11.7839 36.6623C11.7162 36.6309 11.6562 36.585 11.608 36.528C7.234 31.334 4 30.183 4 26.92C4 24.755 5.79 23 8 23Z" fill="white"/>
<defs>
<linearGradient id="paint0_linear_117_95" x1="0" y1="1" x2="60" y2="89" gradientUnits="userSpaceOnUse">
<stop stop-color="#A60C0C"/>
<stop offset="0.531374" stop-color="#740000"/>
<stop offset="1" stop-color="#740000"/>
</linearGradient>
<linearGradient id="paint1_linear_117_95" x1="31" y1="1" x2="31" y2="91" gradientUnits="userSpaceOnUse">
<stop stop-color="#111111" stop-opacity="0"/>
<stop offset="1" stop-color="white" stop-opacity="0.3"/>
</linearGradient>
</defs>
</svg>
