<svg width="62" height="91" viewBox="0 0 62 91" fill="none" xmlns="http://www.w3.org/2000/svg">
<rect x="1" y="2" width="60" height="88" rx="5" fill="url(#paint0_linear_117_71)" stroke="url(#paint1_linear_117_71)" stroke-width="2"/>
<path d="M13.327 9.701C13.2137 9.225 13.0153 8.868 12.732 8.63C12.46 8.392 12.0633 8.273 11.542 8.273C10.76 8.273 10.182 8.59033 9.808 9.225C9.44533 9.84833 9.25833 10.8683 9.247 12.285C9.519 11.8317 9.91567 11.4803 10.437 11.231C10.9583 10.9703 11.525 10.84 12.137 10.84C12.8737 10.84 13.5253 10.9987 14.092 11.316C14.6587 11.6333 15.1007 12.098 15.418 12.71C15.7353 13.3107 15.894 14.036 15.894 14.886C15.894 15.6907 15.7297 16.4103 15.401 17.045C15.0837 17.6683 14.6133 18.1557 13.99 18.507C13.3667 18.8583 12.6243 19.034 11.763 19.034C10.5843 19.034 9.655 18.7733 8.975 18.252C8.30633 17.7307 7.836 17.0053 7.564 16.076C7.30333 15.1353 7.173 13.9793 7.173 12.608C7.173 10.534 7.53 8.97 8.244 7.916C8.958 6.85067 10.0857 6.318 11.627 6.318C12.817 6.318 13.7407 6.641 14.398 7.287C15.0553 7.933 15.435 8.73767 15.537 9.701H13.327ZM11.593 12.795C10.9923 12.795 10.488 12.9707 10.08 13.322C9.672 13.6733 9.468 14.1833 9.468 14.852C9.468 15.5207 9.655 16.0477 10.029 16.433C10.4143 16.8183 10.9527 17.011 11.644 17.011C12.256 17.011 12.7377 16.824 13.089 16.45C13.4517 16.076 13.633 15.5717 13.633 14.937C13.633 14.2797 13.4573 13.7583 13.106 13.373C12.766 12.9877 12.2617 12.795 11.593 12.795Z" fill="white"/>
<path d="M45.764 49.08C45.346 47.332 44.586 46.021 43.484 45.147C42.382 44.273 40.843 43.836 38.867 43.836C35.865 43.836 33.623 44.995 32.141 47.313C30.659 49.593 29.88 53.393 29.804 58.713C30.792 57.041 32.236 55.749 34.136 54.837C36.036 53.925 38.088 53.469 40.292 53.469C42.8 53.469 45.004 54.02 46.904 55.122C48.842 56.186 50.343 57.744 51.407 59.796C52.509 61.848 53.06 64.299 53.06 67.149C53.06 69.809 52.528 72.184 51.464 74.274C50.438 76.364 48.899 78.017 46.847 79.233C44.795 80.411 42.325 81 39.437 81C35.523 81 32.445 80.145 30.203 78.435C27.999 76.687 26.441 74.236 25.529 71.082C24.655 67.928 24.218 63.995 24.218 59.283C24.218 45.375 29.12 38.421 38.924 38.421C42.724 38.421 45.707 39.447 47.873 41.499C50.077 43.551 51.369 46.078 51.749 49.08H45.764ZM38.867 58.941C36.549 58.941 34.573 59.644 32.939 61.05C31.343 62.418 30.545 64.413 30.545 67.035C30.545 69.657 31.286 71.747 32.768 73.305C34.288 74.825 36.397 75.585 39.095 75.585C41.489 75.585 43.37 74.844 44.738 73.362C46.144 71.88 46.847 69.904 46.847 67.434C46.847 64.85 46.163 62.798 44.795 61.278C43.465 59.72 41.489 58.941 38.867 58.941Z" fill="white"/>
<path d="M8 23C10.21 23 12 24.755 12 26.92C12 24.755 13.79 23 16 23C18.21 23 20 24.755 20 26.92C20 30.183 16.766 31.334 12.392 36.528C12.3438 36.585 12.2838 36.6309 12.2161 36.6623C12.1484 36.6938 12.0747 36.7101 12 36.7101C11.9253 36.7101 11.8516 36.6938 11.7839 36.6623C11.7162 36.6309 11.6562 36.585 11.608 36.528C7.234 31.334 4 30.183 4 26.92C4 24.755 5.79 23 8 23Z" fill="white"/>
<defs>
<linearGradient id="paint0_linear_117_71" x1="0" y1="1" x2="60" y2="89" gradientUnits="userSpaceOnUse">
<stop stop-color="#A60C0C"/>
<stop offset="0.531374" stop-color="#740000"/>
<stop offset="1" stop-color="#740000"/>
</linearGradient>
<linearGradient id="paint1_linear_117_71" x1="31" y1="1" x2="31" y2="91" gradientUnits="userSpaceOnUse">
<stop stop-color="#111111" stop-opacity="0"/>
<stop offset="1" stop-color="white" stop-opacity="0.3"/>
</linearGradient>
</defs>
</svg>
