<svg width="62" height="90" viewBox="0 0 62 90" fill="none" xmlns="http://www.w3.org/2000/svg">
<rect x="1" y="1" width="60" height="88" rx="5" fill="url(#paint0_linear_117_107)" stroke="url(#paint1_linear_117_107)" stroke-width="2"/>
<path d="M10.8256 13.8466H12.854L14.0554 15.4041L14.9126 16.4183L16.9712 19.0625H14.7979L13.3974 17.2876L12.7997 16.4425L10.8256 13.8466ZM17.267 11.8182C17.267 13.1503 17.0175 14.2913 16.5185 15.2411C16.0234 16.1869 15.3473 16.9113 14.4901 17.4144C13.6368 17.9175 12.6689 18.169 11.5863 18.169C10.5037 18.169 9.53374 17.9175 8.67649 17.4144C7.82327 16.9073 7.14714 16.1809 6.64808 15.2351C6.15305 14.2853 5.90554 13.1463 5.90554 11.8182C5.90554 10.486 6.15305 9.34706 6.64808 8.40128C7.14714 7.45147 7.82327 6.72502 8.67649 6.22195C9.53374 5.71887 10.5037 5.46733 11.5863 5.46733C12.6689 5.46733 13.6368 5.71887 14.4901 6.22195C15.3473 6.72502 16.0234 7.45147 16.5185 8.40128C17.0175 9.34706 17.267 10.486 17.267 11.8182ZM15.0153 11.8182C15.0153 10.8804 14.8684 10.0896 14.5746 9.44567C14.2848 8.7977 13.8823 8.30871 13.3672 7.97869C12.852 7.64465 12.2584 7.47763 11.5863 7.47763C10.9142 7.47763 10.3205 7.64465 9.8054 7.97869C9.29025 8.30871 8.88577 8.7977 8.59197 9.44567C8.3022 10.0896 8.15732 10.8804 8.15732 11.8182C8.15732 12.7559 8.3022 13.5488 8.59197 14.1967C8.88577 14.8407 9.29025 15.3297 9.8054 15.6637C10.3205 15.9937 10.9142 16.1587 11.5863 16.1587C12.2584 16.1587 12.852 15.9937 13.3672 15.6637C13.8823 15.3297 14.2848 14.8407 14.5746 14.1967C14.8684 13.5488 15.0153 12.7559 15.0153 11.8182Z" fill="white"/>
<path d="M33.7962 62.5597H39.9496L44.2812 68.207L46.3256 70.717L53.228 79.7244H46.8317L42.2166 73.7127L40.6378 71.5266L33.7962 62.5597ZM54.5639 55.2727C54.5639 59.6989 53.7543 63.5043 52.1349 66.6889C50.5156 69.8601 48.2958 72.3026 45.4755 74.0163C42.6687 75.7166 39.4773 76.5668 35.9013 76.5668C32.3118 76.5668 29.1069 75.7166 26.2866 74.0163C23.4798 72.3026 21.2667 69.8533 19.6474 66.6687C18.0281 63.484 17.2184 59.6854 17.2184 55.2727C17.2184 50.8466 18.0281 47.0479 19.6474 43.8768C21.2667 40.6921 23.4798 38.2496 26.2866 36.5494C29.1069 34.8356 32.3118 33.9787 35.9013 33.9787C39.4773 33.9787 42.6687 34.8356 45.4755 36.5494C48.2958 38.2496 50.5156 40.6921 52.1349 43.8768C53.7543 47.0479 54.5639 50.8466 54.5639 55.2727ZM48.37 55.2727C48.37 51.8991 47.8235 49.0586 46.7305 46.7511C45.6509 44.43 44.1665 42.6758 42.2773 41.4883C40.4016 40.2873 38.2763 39.6868 35.9013 39.6868C33.5128 39.6868 31.3807 40.2873 29.505 41.4883C27.6293 42.6758 26.1449 44.43 25.0518 46.7511C23.9723 49.0586 23.4325 51.8991 23.4325 55.2727C23.4325 58.6463 23.9723 61.4936 25.0518 63.8146C26.1449 66.1222 27.6293 67.8764 29.505 69.0774C31.3807 70.2649 33.5128 70.8587 35.9013 70.8587C38.2763 70.8587 40.4016 70.2649 42.2773 69.0774C44.1665 67.8764 45.6509 66.1222 46.7305 63.8146C47.8235 61.4936 48.37 58.6463 48.37 55.2727Z" fill="white"/>
<path d="M8 22C10.21 22 12 23.755 12 25.92C12 23.755 13.79 22 16 22C18.21 22 20 23.755 20 25.92C20 29.183 16.766 30.334 12.392 35.528C12.3438 35.585 12.2838 35.6309 12.2161 35.6623C12.1484 35.6938 12.0747 35.7101 12 35.7101C11.9253 35.7101 11.8516 35.6938 11.7839 35.6623C11.7162 35.6309 11.6562 35.585 11.608 35.528C7.234 30.334 4 29.183 4 25.92C4 23.755 5.79 22 8 22Z" fill="white"/>
<defs>
<linearGradient id="paint0_linear_117_107" x1="0" y1="0" x2="60" y2="88" gradientUnits="userSpaceOnUse">
<stop stop-color="#A60C0C"/>
<stop offset="0.531374" stop-color="#740000"/>
<stop offset="1" stop-color="#740000"/>
</linearGradient>
<linearGradient id="paint1_linear_117_107" x1="31" y1="0" x2="31" y2="90" gradientUnits="userSpaceOnUse">
<stop stop-color="#111111" stop-opacity="0"/>
<stop offset="1" stop-color="white" stop-opacity="0.3"/>
</linearGradient>
</defs>
</svg>
