<svg width="62" height="90" viewBox="0 0 62 90" fill="none" xmlns="http://www.w3.org/2000/svg">
<rect x="1" y="1" width="60" height="88" rx="5" fill="url(#paint0_linear_117_23)" stroke="url(#paint1_linear_117_23)" stroke-width="2"/>
<path d="M8.65092 18H6.2603L10.6129 5.63636H13.3778L17.7365 18H15.3459L12.0437 8.17188H11.9471L8.65092 18ZM8.7294 13.1523H15.2493V14.9513H8.7294V13.1523Z" fill="white"/>
<path d="M44.158 71.906H27.571L24.721 80H17.938L32.131 40.328H39.655L53.848 80H47.008L44.158 71.906ZM42.334 66.605L35.893 48.194L29.395 66.605H42.334Z" fill="white"/>
<path d="M8 22C10.21 22 12 23.755 12 25.92C12 23.755 13.79 22 16 22C18.21 22 20 23.755 20 25.92C20 29.183 16.766 30.334 12.392 35.528C12.3438 35.585 12.2838 35.6309 12.2161 35.6623C12.1484 35.6938 12.0747 35.7101 12 35.7101C11.9253 35.7101 11.8516 35.6938 11.7839 35.6623C11.7162 35.6309 11.6562 35.585 11.608 35.528C7.234 30.334 4 29.183 4 25.92C4 23.755 5.79 22 8 22Z" fill="white"/>
<defs>
<linearGradient id="paint0_linear_117_23" x1="0" y1="0" x2="60" y2="88" gradientUnits="userSpaceOnUse">
<stop stop-color="#A60C0C"/>
<stop offset="0.531374" stop-color="#740000"/>
<stop offset="1" stop-color="#740000"/>
</linearGradient>
<linearGradient id="paint1_linear_117_23" x1="31" y1="0" x2="31" y2="90" gradientUnits="userSpaceOnUse">
<stop stop-color="#111111" stop-opacity="0"/>
<stop offset="1" stop-color="white" stop-opacity="0.3"/>
</linearGradient>
</defs>
</svg>
