<svg width="62" height="91" viewBox="0 0 62 91" fill="none" xmlns="http://www.w3.org/2000/svg">
<rect x="1" y="2" width="60" height="88" rx="5" fill="url(#paint0_linear_117_59)" stroke="url(#paint1_linear_117_59)" stroke-width="2"/>
<path d="M8.975 12.438C7.84167 11.8487 7.275 10.9363 7.275 9.701C7.275 9.089 7.428 8.53367 7.734 8.035C8.05133 7.525 8.52167 7.12267 9.145 6.828C9.77967 6.522 10.5503 6.369 11.457 6.369C12.3637 6.369 13.1287 6.522 13.752 6.828C14.3867 7.12267 14.857 7.525 15.163 8.035C15.4803 8.53367 15.639 9.089 15.639 9.701C15.639 10.3243 15.486 10.874 15.18 11.35C14.874 11.8147 14.466 12.1773 13.956 12.438C14.5793 12.71 15.0667 13.1067 15.418 13.628C15.7693 14.1493 15.945 14.767 15.945 15.481C15.945 16.2517 15.7467 16.926 15.35 17.504C14.9647 18.0707 14.432 18.507 13.752 18.813C13.072 19.119 12.307 19.272 11.457 19.272C10.607 19.272 9.842 19.119 9.162 18.813C8.49333 18.507 7.96067 18.0707 7.564 17.504C7.17867 16.926 6.986 16.2517 6.986 15.481C6.986 14.767 7.16167 14.1493 7.513 13.628C7.86433 13.0953 8.35167 12.6987 8.975 12.438ZM13.327 10.041C13.327 9.48567 13.157 9.055 12.817 8.749C12.4883 8.443 12.035 8.29 11.457 8.29C10.8903 8.29 10.437 8.443 10.097 8.749C9.76833 9.055 9.604 9.49133 9.604 10.058C9.604 10.568 9.774 10.976 10.114 11.282C10.4653 11.588 10.913 11.741 11.457 11.741C12.001 11.741 12.4487 11.588 12.8 11.282C13.1513 10.9647 13.327 10.551 13.327 10.041ZM11.457 13.475C10.811 13.475 10.284 13.6393 9.876 13.968C9.47933 14.2967 9.281 14.767 9.281 15.379C9.281 15.9457 9.47367 16.4103 9.859 16.773C10.2557 17.1243 10.7883 17.3 11.457 17.3C12.1257 17.3 12.6527 17.1187 13.038 16.756C13.4233 16.3933 13.616 15.9343 13.616 15.379C13.616 14.7783 13.4177 14.3137 13.021 13.985C12.6243 13.645 12.103 13.475 11.457 13.475Z" fill="white"/>
<path d="M30.431 59.283C26.479 57.307 24.503 54.191 24.503 49.935C24.503 47.883 25.016 46.002 26.042 44.292C27.068 42.582 28.607 41.233 30.659 40.245C32.711 39.219 35.219 38.706 38.183 38.706C41.109 38.706 43.598 39.219 45.65 40.245C47.74 41.233 49.298 42.582 50.324 44.292C51.35 46.002 51.863 47.883 51.863 49.935C51.863 52.063 51.312 53.944 50.21 55.578C49.146 57.174 47.721 58.409 45.935 59.283C48.101 60.081 49.811 61.392 51.065 63.216C52.319 65.002 52.946 67.111 52.946 69.543C52.946 72.013 52.319 74.198 51.065 76.098C49.811 77.998 48.063 79.461 45.821 80.487C43.579 81.513 41.033 82.026 38.183 82.026C35.333 82.026 32.787 81.513 30.545 80.487C28.341 79.461 26.612 77.998 25.358 76.098C24.104 74.198 23.477 72.013 23.477 69.543C23.477 67.073 24.104 64.945 25.358 63.159C26.612 61.373 28.303 60.081 30.431 59.283ZM45.65 50.733C45.65 48.605 44.985 46.971 43.655 45.831C42.325 44.691 40.501 44.121 38.183 44.121C35.903 44.121 34.098 44.691 32.768 45.831C31.438 46.971 30.773 48.624 30.773 50.79C30.773 52.69 31.457 54.248 32.825 55.464C34.231 56.642 36.017 57.231 38.183 57.231C40.349 57.231 42.135 56.623 43.541 55.407C44.947 54.191 45.65 52.633 45.65 50.733ZM38.183 62.133C35.675 62.133 33.623 62.76 32.027 64.014C30.469 65.23 29.69 66.997 29.69 69.315C29.69 71.481 30.45 73.248 31.97 74.616C33.49 75.946 35.561 76.611 38.183 76.611C40.767 76.611 42.8 75.927 44.282 74.559C45.802 73.191 46.562 71.443 46.562 69.315C46.562 67.035 45.783 65.268 44.225 64.014C42.705 62.76 40.691 62.133 38.183 62.133Z" fill="white"/>
<path d="M8 23C10.21 23 12 24.755 12 26.92C12 24.755 13.79 23 16 23C18.21 23 20 24.755 20 26.92C20 30.183 16.766 31.334 12.392 36.528C12.3438 36.585 12.2838 36.6309 12.2161 36.6623C12.1484 36.6938 12.0747 36.7101 12 36.7101C11.9253 36.7101 11.8516 36.6938 11.7839 36.6623C11.7162 36.6309 11.6562 36.585 11.608 36.528C7.234 31.334 4 30.183 4 26.92C4 24.755 5.79 23 8 23Z" fill="white"/>
<defs>
<linearGradient id="paint0_linear_117_59" x1="0" y1="1" x2="60" y2="89" gradientUnits="userSpaceOnUse">
<stop stop-color="#A60C0C"/>
<stop offset="0.531374" stop-color="#740000"/>
<stop offset="1" stop-color="#740000"/>
</linearGradient>
<linearGradient id="paint1_linear_117_59" x1="31" y1="1" x2="31" y2="91" gradientUnits="userSpaceOnUse">
<stop stop-color="#111111" stop-opacity="0"/>
<stop offset="1" stop-color="white" stop-opacity="0.3"/>
</linearGradient>
</defs>
</svg>
