<svg width="62" height="91" viewBox="0 0 62 91" fill="none" xmlns="http://www.w3.org/2000/svg">
<rect x="1" y="2" width="60" height="88" rx="5" fill="url(#paint0_linear_117_77)" stroke="url(#paint1_linear_117_77)" stroke-width="2"/>
<path d="M15.231 8.664H9.723V11.571C9.961 11.2763 10.301 11.0383 10.743 10.857C11.185 10.6643 11.6553 10.568 12.154 10.568C13.0607 10.568 13.803 10.7663 14.381 11.163C14.959 11.5597 15.3783 12.0697 15.639 12.693C15.8997 13.305 16.03 13.9623 16.03 14.665C16.03 15.9683 15.656 17.0167 14.908 17.81C14.1713 18.6033 13.1173 19 11.746 19C10.454 19 9.42267 18.677 8.652 18.031C7.88133 17.385 7.445 16.5407 7.343 15.498H9.655C9.757 15.9513 9.98367 16.314 10.335 16.586C10.6977 16.858 11.1567 16.994 11.712 16.994C12.3807 16.994 12.885 16.7843 13.225 16.365C13.565 15.9457 13.735 15.3903 13.735 14.699C13.735 13.9963 13.5593 13.4637 13.208 13.101C12.868 12.727 12.3637 12.54 11.695 12.54C11.219 12.54 10.8223 12.659 10.505 12.897C10.1877 13.135 9.961 13.4523 9.825 13.849H7.547V6.573H15.231V8.664Z" fill="white"/>
<path d="M50.21 45.033H31.115V56.376C31.913 55.312 33.091 54.419 34.649 53.697C36.245 52.975 37.936 52.614 39.722 52.614C42.914 52.614 45.498 53.298 47.474 54.666C49.488 56.034 50.913 57.763 51.749 59.853C52.623 61.943 53.06 64.147 53.06 66.465C53.06 69.277 52.509 71.785 51.407 73.989C50.343 76.155 48.728 77.865 46.562 79.119C44.434 80.373 41.812 81 38.696 81C34.554 81 31.229 79.974 28.721 77.922C26.213 75.87 24.712 73.153 24.218 69.771H30.545C30.963 71.557 31.894 72.982 33.338 74.046C34.782 75.072 36.587 75.585 38.753 75.585C41.451 75.585 43.465 74.768 44.795 73.134C46.163 71.5 46.847 69.334 46.847 66.636C46.847 63.9 46.163 61.81 44.795 60.366C43.427 58.884 41.413 58.143 38.753 58.143C36.891 58.143 35.314 58.618 34.022 59.568C32.768 60.48 31.856 61.734 31.286 63.33H25.13V39.333H50.21V45.033Z" fill="white"/>
<path d="M8 23C10.21 23 12 24.755 12 26.92C12 24.755 13.79 23 16 23C18.21 23 20 24.755 20 26.92C20 30.183 16.766 31.334 12.392 36.528C12.3438 36.585 12.2838 36.6309 12.2161 36.6623C12.1484 36.6938 12.0747 36.7101 12 36.7101C11.9253 36.7101 11.8516 36.6938 11.7839 36.6623C11.7162 36.6309 11.6562 36.585 11.608 36.528C7.234 31.334 4 30.183 4 26.92C4 24.755 5.79 23 8 23Z" fill="white"/>
<defs>
<linearGradient id="paint0_linear_117_77" x1="0" y1="1" x2="60" y2="89" gradientUnits="userSpaceOnUse">
<stop stop-color="#A60C0C"/>
<stop offset="0.531374" stop-color="#740000"/>
<stop offset="1" stop-color="#740000"/>
</linearGradient>
<linearGradient id="paint1_linear_117_77" x1="31" y1="1" x2="31" y2="91" gradientUnits="userSpaceOnUse">
<stop stop-color="#111111" stop-opacity="0"/>
<stop offset="1" stop-color="white" stop-opacity="0.3"/>
</linearGradient>
</defs>
</svg>
