<svg width="62" height="91" viewBox="0 0 62 91" fill="none" xmlns="http://www.w3.org/2000/svg">
<rect x="1" y="2" width="60" height="88" rx="5" fill="url(#paint0_linear_117_41)" stroke="url(#paint1_linear_117_41)" stroke-width="2"/>
<path d="M4.612 8.8V6.607H8.709V19H6.261V8.8H4.612ZM9.02018 12.642C9.02018 10.6813 9.37151 9.14567 10.0742 8.035C10.7882 6.92433 11.9668 6.369 13.6102 6.369C15.2535 6.369 16.4265 6.92433 17.1292 8.035C17.8432 9.14567 18.2002 10.6813 18.2002 12.642C18.2002 14.614 17.8432 16.161 17.1292 17.283C16.4265 18.405 15.2535 18.966 13.6102 18.966C11.9668 18.966 10.7882 18.405 10.0742 17.283C9.37151 16.161 9.02018 14.614 9.02018 12.642ZM15.8542 12.642C15.8542 11.8033 15.7975 11.1007 15.6842 10.534C15.5822 9.956 15.3668 9.48567 15.0382 9.123C14.7208 8.76033 14.2448 8.579 13.6102 8.579C12.9755 8.579 12.4938 8.76033 12.1652 9.123C11.8478 9.48567 11.6325 9.956 11.5192 10.534C11.4172 11.1007 11.3662 11.8033 11.3662 12.642C11.3662 13.5033 11.4172 14.2287 11.5192 14.818C11.6212 15.396 11.8365 15.8663 12.1652 16.229C12.4938 16.5803 12.9755 16.756 13.6102 16.756C14.2448 16.756 14.7265 16.5803 15.0552 16.229C15.3838 15.8663 15.5992 15.396 15.7012 14.818C15.8032 14.2287 15.8542 13.5033 15.8542 12.642Z" fill="white"/>
<path d="M13.565 48.375V42.447H25.421V84H18.866V48.375H13.565ZM27.5077 62.682C27.5077 56.108 28.6097 50.978 30.8137 47.292C33.0557 43.568 36.8937 41.706 42.3277 41.706C47.7617 41.706 51.5807 43.568 53.7847 47.292C56.0267 50.978 57.1477 56.108 57.1477 62.682C57.1477 69.332 56.0267 74.538 53.7847 78.3C51.5807 82.024 47.7617 83.886 42.3277 83.886C36.8937 83.886 33.0557 82.024 30.8137 78.3C28.6097 74.538 27.5077 69.332 27.5077 62.682ZM50.7637 62.682C50.7637 59.604 50.5547 57.001 50.1367 54.873C49.7567 52.745 48.9587 51.016 47.7427 49.686C46.5267 48.318 44.7217 47.634 42.3277 47.634C39.9337 47.634 38.1287 48.318 36.9127 49.686C35.6967 51.016 34.8797 52.745 34.4617 54.873C34.0817 57.001 33.8917 59.604 33.8917 62.682C33.8917 65.874 34.0817 68.553 34.4617 70.719C34.8417 72.885 35.6397 74.633 36.8557 75.963C38.1097 77.293 39.9337 77.958 42.3277 77.958C44.7217 77.958 46.5267 77.293 47.7427 75.963C48.9967 74.633 49.8137 72.885 50.1937 70.719C50.5737 68.553 50.7637 65.874 50.7637 62.682Z" fill="white"/>
<path d="M8 23C10.21 23 12 24.755 12 26.92C12 24.755 13.79 23 16 23C18.21 23 20 24.755 20 26.92C20 30.183 16.766 31.334 12.392 36.528C12.3438 36.585 12.2838 36.6309 12.2161 36.6623C12.1484 36.6938 12.0747 36.7101 12 36.7101C11.9253 36.7101 11.8516 36.6938 11.7839 36.6623C11.7162 36.6309 11.6562 36.585 11.608 36.528C7.234 31.334 4 30.183 4 26.92C4 24.755 5.79 23 8 23Z" fill="white"/>
<defs>
<linearGradient id="paint0_linear_117_41" x1="0" y1="1" x2="60" y2="89" gradientUnits="userSpaceOnUse">
<stop stop-color="#A60C0C"/>
<stop offset="0.531374" stop-color="#740000"/>
<stop offset="1" stop-color="#740000"/>
</linearGradient>
<linearGradient id="paint1_linear_117_41" x1="31" y1="1" x2="31" y2="91" gradientUnits="userSpaceOnUse">
<stop stop-color="#111111" stop-opacity="0"/>
<stop offset="1" stop-color="white" stop-opacity="0.3"/>
</linearGradient>
</defs>
</svg>
