<svg width="62" height="91" viewBox="0 0 62 91" fill="none" xmlns="http://www.w3.org/2000/svg">
<rect x="1" y="2" width="60" height="88" rx="5" fill="#111111" stroke="url(#paint0_linear_117_287)" stroke-width="2"/>
<path d="M5.612 8.8V6.607H9.709V19H7.261V8.8H5.612ZM10.0202 12.642C10.0202 10.6813 10.3715 9.14567 11.0742 8.035C11.7882 6.92433 12.9668 6.369 14.6102 6.369C16.2535 6.369 17.4265 6.92433 18.1292 8.035C18.8432 9.14567 19.2002 10.6813 19.2002 12.642C19.2002 14.614 18.8432 16.161 18.1292 17.283C17.4265 18.405 16.2535 18.966 14.6102 18.966C12.9668 18.966 11.7882 18.405 11.0742 17.283C10.3715 16.161 10.0202 14.614 10.0202 12.642ZM16.8542 12.642C16.8542 11.8033 16.7975 11.1007 16.6842 10.534C16.5822 9.956 16.3668 9.48567 16.0382 9.123C15.7208 8.76033 15.2448 8.579 14.6102 8.579C13.9755 8.579 13.4938 8.76033 13.1652 9.123C12.8478 9.48567 12.6325 9.956 12.5192 10.534C12.4172 11.1007 12.3662 11.8033 12.3662 12.642C12.3662 13.5033 12.4172 14.2287 12.5192 14.818C12.6212 15.396 12.8365 15.8663 13.1652 16.229C13.4938 16.5803 13.9755 16.756 14.6102 16.756C15.2448 16.756 15.7265 16.5803 16.0552 16.229C16.3838 15.8663 16.5992 15.396 16.7012 14.818C16.8032 14.2287 16.8542 13.5033 16.8542 12.642Z" fill="white"/>
<path d="M13.565 48.375V42.447H25.421V84H18.866V48.375H13.565ZM27.5077 62.682C27.5077 56.108 28.6097 50.978 30.8137 47.292C33.0557 43.568 36.8937 41.706 42.3277 41.706C47.7617 41.706 51.5807 43.568 53.7847 47.292C56.0267 50.978 57.1477 56.108 57.1477 62.682C57.1477 69.332 56.0267 74.538 53.7847 78.3C51.5807 82.024 47.7617 83.886 42.3277 83.886C36.8937 83.886 33.0557 82.024 30.8137 78.3C28.6097 74.538 27.5077 69.332 27.5077 62.682ZM50.7637 62.682C50.7637 59.604 50.5547 57.001 50.1367 54.873C49.7567 52.745 48.9587 51.016 47.7427 49.686C46.5267 48.318 44.7217 47.634 42.3277 47.634C39.9337 47.634 38.1287 48.318 36.9127 49.686C35.6967 51.016 34.8797 52.745 34.4617 54.873C34.0817 57.001 33.8917 59.604 33.8917 62.682C33.8917 65.874 34.0817 68.553 34.4617 70.719C34.8417 72.885 35.6397 74.633 36.8557 75.963C38.1097 77.293 39.9337 77.958 42.3277 77.958C44.7217 77.958 46.5267 77.293 47.7427 75.963C48.9967 74.633 49.8137 72.885 50.1937 70.719C50.5737 68.553 50.7637 65.874 50.7637 62.682Z" fill="white"/>
<g clip-path="url(#clip0_117_287)">
<path d="M15.7751 27.44C12.7511 25.192 11.7081 23.393 11.0011 22C10.2931 23.393 9.25111 25.192 6.22711 27.44C1.07011 31.273 5.92411 36.622 10.1921 33.678C9.91411 35.505 8.96511 36.837 8.00111 37.411V38.001H14.0011V37.411C13.0371 36.837 12.0881 35.505 11.8101 33.678C16.0781 36.622 20.9321 31.273 15.7751 27.44Z" fill="white"/>
</g>
<defs>
<linearGradient id="paint0_linear_117_287" x1="31" y1="1" x2="31" y2="91" gradientUnits="userSpaceOnUse">
<stop stop-color="#111111" stop-opacity="0"/>
<stop offset="1" stop-color="white" stop-opacity="0.3"/>
</linearGradient>
<clipPath id="clip0_117_287">
<rect width="16" height="16" fill="white" transform="translate(3 22)"/>
</clipPath>
</defs>
</svg>
