<svg width="62" height="91" viewBox="0 0 62 91" fill="none" xmlns="http://www.w3.org/2000/svg">
<rect x="1" y="2" width="60" height="88" rx="5" fill="#111111" stroke="url(#paint0_linear_117_293)" stroke-width="2"/>
<path d="M9.655 15.515C9.74567 16.0137 9.94967 16.399 10.267 16.671C10.5957 16.9317 11.032 17.062 11.576 17.062C12.2787 17.062 12.7887 16.773 13.106 16.195C13.4233 15.6057 13.582 14.6197 13.582 13.237C13.3213 13.5997 12.953 13.883 12.477 14.087C12.0123 14.291 11.508 14.393 10.964 14.393C10.2387 14.393 9.58133 14.2457 8.992 13.951C8.414 13.645 7.955 13.1973 7.615 12.608C7.275 12.0073 7.105 11.282 7.105 10.432C7.105 9.174 7.479 8.17667 8.227 7.44C8.975 6.692 9.995 6.318 11.287 6.318C12.8963 6.318 14.0297 6.83367 14.687 7.865C15.3557 8.89633 15.69 10.449 15.69 12.523C15.69 13.9963 15.5597 15.2033 15.299 16.144C15.0497 17.0847 14.6133 17.7987 13.99 18.286C13.378 18.7733 12.5393 19.017 11.474 19.017C10.6353 19.017 9.92133 18.8583 9.332 18.541C8.74267 18.2123 8.28933 17.7873 7.972 17.266C7.666 16.7333 7.49033 16.1497 7.445 15.515H9.655ZM11.457 12.455C12.0463 12.455 12.511 12.2737 12.851 11.911C13.191 11.5483 13.361 11.061 13.361 10.449C13.361 9.78033 13.1797 9.26467 12.817 8.902C12.4657 8.528 11.984 8.341 11.372 8.341C10.76 8.341 10.2727 8.53367 9.91 8.919C9.55867 9.293 9.383 9.79167 9.383 10.415C9.383 11.0157 9.553 11.5087 9.893 11.894C10.2443 12.268 10.7657 12.455 11.457 12.455Z" fill="white"/>
<path d="M32.514 69.714C32.894 71.614 33.711 73.058 34.965 74.046C36.219 75.034 37.91 75.528 40.038 75.528C42.736 75.528 44.712 74.464 45.966 72.336C47.22 70.208 47.847 66.579 47.847 61.449C46.935 62.741 45.643 63.748 43.971 64.47C42.337 65.154 40.551 65.496 38.613 65.496C36.143 65.496 33.901 65.002 31.887 64.014C29.873 62.988 28.277 61.487 27.099 59.511C25.959 57.497 25.389 55.065 25.389 52.215C25.389 48.035 26.605 44.71 29.037 42.24C31.507 39.732 34.889 38.478 39.183 38.478C44.351 38.478 48.018 40.207 50.184 43.665C52.388 47.085 53.49 52.348 53.49 59.454C53.49 64.356 53.072 68.365 52.236 71.481C51.438 74.597 50.032 76.953 48.018 78.549C46.004 80.145 43.211 80.943 39.639 80.943C35.573 80.943 32.438 79.879 30.234 77.751C28.03 75.623 26.795 72.944 26.529 69.714H32.514ZM39.753 60.024C42.033 60.024 43.819 59.321 45.111 57.915C46.441 56.471 47.106 54.571 47.106 52.215C47.106 49.593 46.403 47.56 44.997 46.116C43.629 44.634 41.748 43.893 39.354 43.893C36.96 43.893 35.06 44.653 33.654 46.173C32.286 47.655 31.602 49.612 31.602 52.044C31.602 54.362 32.267 56.281 33.597 57.801C34.965 59.283 37.017 60.024 39.753 60.024Z" fill="white"/>
<g clip-path="url(#clip0_117_293)">
<path d="M15.7751 27.44C12.7511 25.192 11.7081 23.393 11.0011 22C10.2931 23.393 9.25111 25.192 6.22711 27.44C1.07011 31.273 5.92411 36.622 10.1921 33.678C9.91411 35.505 8.96511 36.837 8.00111 37.411V38.001H14.0011V37.411C13.0371 36.837 12.0881 35.505 11.8101 33.678C16.0781 36.622 20.9321 31.273 15.7751 27.44Z" fill="white"/>
</g>
<defs>
<linearGradient id="paint0_linear_117_293" x1="31" y1="1" x2="31" y2="91" gradientUnits="userSpaceOnUse">
<stop stop-color="#111111" stop-opacity="0"/>
<stop offset="1" stop-color="white" stop-opacity="0.3"/>
</linearGradient>
<clipPath id="clip0_117_293">
<rect width="16" height="16" fill="white" transform="translate(3 22)"/>
</clipPath>
</defs>
</svg>
