<svg width="62" height="91" viewBox="0 0 62 91" fill="none" xmlns="http://www.w3.org/2000/svg">
<rect x="1" y="2" width="60" height="88" rx="5" fill="#111111" stroke="url(#paint0_linear_117_329)" stroke-width="2"/>
<path d="M6.935 9.871C6.99167 8.73767 7.38833 7.865 8.125 7.253C8.873 6.62967 9.85333 6.318 11.066 6.318C11.8933 6.318 12.6017 6.46533 13.191 6.76C13.7803 7.04333 14.2223 7.43433 14.517 7.933C14.823 8.42033 14.976 8.97567 14.976 9.599C14.976 10.313 14.789 10.9193 14.415 11.418C14.0523 11.9053 13.616 12.234 13.106 12.404V12.472C13.7633 12.676 14.2733 13.0387 14.636 13.56C15.01 14.0813 15.197 14.75 15.197 15.566C15.197 16.246 15.0383 16.8523 14.721 17.385C14.415 17.9177 13.956 18.337 13.344 18.643C12.7433 18.9377 12.018 19.085 11.168 19.085C9.88733 19.085 8.84467 18.762 8.04 18.116C7.23533 17.47 6.81033 16.518 6.765 15.26H9.077C9.09967 15.8153 9.28667 16.263 9.638 16.603C10.0007 16.9317 10.4937 17.096 11.117 17.096C11.695 17.096 12.137 16.9373 12.443 16.62C12.7603 16.2913 12.919 15.872 12.919 15.362C12.919 14.682 12.7037 14.1947 12.273 13.9C11.8423 13.6053 11.1737 13.458 10.267 13.458H9.774V11.503H10.267C11.8763 11.503 12.681 10.9647 12.681 9.888C12.681 9.40067 12.5337 9.021 12.239 8.749C11.9557 8.477 11.542 8.341 10.998 8.341C10.4653 8.341 10.0517 8.48833 9.757 8.783C9.47367 9.06633 9.30933 9.429 9.264 9.871H6.935Z" fill="white"/>
<path d="M27.306 49.707C27.534 46.173 28.883 43.418 31.353 41.442C33.861 39.466 37.053 38.478 40.929 38.478C43.589 38.478 45.888 38.953 47.826 39.903C49.764 40.853 51.227 42.145 52.215 43.779C53.203 45.413 53.697 47.256 53.697 49.308C53.697 51.664 53.07 53.678 51.816 55.35C50.562 57.022 49.061 58.143 47.313 58.713V58.941C49.555 59.625 51.303 60.879 52.557 62.703C53.811 64.489 54.438 66.788 54.438 69.6C54.438 71.842 53.925 73.837 52.899 75.585C51.873 77.333 50.353 78.72 48.339 79.746C46.325 80.734 43.912 81.228 41.1 81.228C36.996 81.228 33.614 80.183 30.954 78.093C28.332 75.965 26.926 72.925 26.736 68.973H33.006C33.158 70.987 33.937 72.64 35.343 73.932C36.749 75.186 38.649 75.813 41.043 75.813C43.361 75.813 45.147 75.186 46.401 73.932C47.655 72.64 48.282 70.987 48.282 68.973C48.282 66.313 47.427 64.432 45.717 63.33C44.045 62.19 41.461 61.62 37.965 61.62H36.483V56.262H38.022C41.1 56.224 43.437 55.711 45.033 54.723C46.667 53.735 47.484 52.177 47.484 50.049C47.484 48.225 46.895 46.781 45.717 45.717C44.539 44.615 42.867 44.064 40.701 44.064C38.573 44.064 36.92 44.615 35.742 45.717C34.564 46.781 33.861 48.111 33.633 49.707H27.306Z" fill="white"/>
<g clip-path="url(#clip0_117_329)">
<path d="M15.7751 27.44C12.7511 25.192 11.7081 23.393 11.0011 22C10.2931 23.393 9.25111 25.192 6.22711 27.44C1.07011 31.273 5.92411 36.622 10.1921 33.678C9.91411 35.505 8.96511 36.837 8.00111 37.411V38.001H14.0011V37.411C13.0371 36.837 12.0881 35.505 11.8101 33.678C16.0781 36.622 20.9321 31.273 15.7751 27.44Z" fill="white"/>
</g>
<defs>
<linearGradient id="paint0_linear_117_329" x1="31" y1="1" x2="31" y2="91" gradientUnits="userSpaceOnUse">
<stop stop-color="#111111" stop-opacity="0"/>
<stop offset="1" stop-color="white" stop-opacity="0.3"/>
</linearGradient>
<clipPath id="clip0_117_329">
<rect width="16" height="16" fill="white" transform="translate(3 22)"/>
</clipPath>
</defs>
</svg>
