<svg width="62" height="91" viewBox="0 0 62 91" fill="none" xmlns="http://www.w3.org/2000/svg">
<rect x="1" y="2" width="60" height="88" rx="5" fill="#111111" stroke="url(#paint0_linear_117_341)" stroke-width="2"/>
<path d="M14.092 7.134V15.464C14.092 16.62 13.7577 17.521 13.089 18.167C12.4203 18.8017 11.525 19.119 10.403 19.119C9.26967 19.119 8.35167 18.7903 7.649 18.133C6.95767 17.4757 6.612 16.5577 6.612 15.379H8.992C9.00333 15.889 9.12233 16.2857 9.349 16.569C9.587 16.8523 9.927 16.994 10.369 16.994C10.7997 16.994 11.1283 16.858 11.355 16.586C11.5817 16.314 11.695 15.94 11.695 15.464V7.134H14.092Z" fill="white"/>
<path d="M49.878 39.385V67.942C49.878 71.476 48.795 74.269 46.629 76.321C44.501 78.373 41.689 79.399 38.193 79.399C34.697 79.399 31.866 78.373 29.7 76.321C27.572 74.269 26.508 71.476 26.508 67.942H33.063C33.101 69.69 33.538 71.077 34.374 72.103C35.248 73.129 36.521 73.642 38.193 73.642C39.865 73.642 41.138 73.129 42.012 72.103C42.886 71.039 43.323 69.652 43.323 67.942V39.385H49.878Z" fill="white"/>
<g clip-path="url(#clip0_117_341)">
<path d="M15.7751 27.44C12.7511 25.192 11.7081 23.393 11.0011 22C10.2931 23.393 9.25111 25.192 6.22711 27.44C1.07011 31.273 5.92411 36.622 10.1921 33.678C9.91411 35.505 8.96511 36.837 8.00111 37.411V38.001H14.0011V37.411C13.0371 36.837 12.0881 35.505 11.8101 33.678C16.0781 36.622 20.9321 31.273 15.7751 27.44Z" fill="white"/>
</g>
<defs>
<linearGradient id="paint0_linear_117_341" x1="31" y1="1" x2="31" y2="91" gradientUnits="userSpaceOnUse">
<stop stop-color="#111111" stop-opacity="0"/>
<stop offset="1" stop-color="white" stop-opacity="0.3"/>
</linearGradient>
<clipPath id="clip0_117_341">
<rect width="16" height="16" fill="white" transform="translate(3 22)"/>
</clipPath>
</defs>
</svg>
