<svg width="62" height="91" viewBox="0 0 62 91" fill="none" xmlns="http://www.w3.org/2000/svg">
<rect x="1" y="2" width="60" height="88" rx="5" fill="#111111" stroke="url(#paint0_linear_117_311)" stroke-width="2"/>
<path d="M12.327 9.701C12.2137 9.225 12.0153 8.868 11.732 8.63C11.46 8.392 11.0633 8.273 10.542 8.273C9.76 8.273 9.182 8.59033 8.808 9.225C8.44533 9.84833 8.25833 10.8683 8.247 12.285C8.519 11.8317 8.91567 11.4803 9.437 11.231C9.95833 10.9703 10.525 10.84 11.137 10.84C11.8737 10.84 12.5253 10.9987 13.092 11.316C13.6587 11.6333 14.1007 12.098 14.418 12.71C14.7353 13.3107 14.894 14.036 14.894 14.886C14.894 15.6907 14.7297 16.4103 14.401 17.045C14.0837 17.6683 13.6133 18.1557 12.99 18.507C12.3667 18.8583 11.6243 19.034 10.763 19.034C9.58433 19.034 8.655 18.7733 7.975 18.252C7.30633 17.7307 6.836 17.0053 6.564 16.076C6.30333 15.1353 6.173 13.9793 6.173 12.608C6.173 10.534 6.53 8.97 7.244 7.916C7.958 6.85067 9.08567 6.318 10.627 6.318C11.817 6.318 12.7407 6.641 13.398 7.287C14.0553 7.933 14.435 8.73767 14.537 9.701H12.327ZM10.593 12.795C9.99233 12.795 9.488 12.9707 9.08 13.322C8.672 13.6733 8.468 14.1833 8.468 14.852C8.468 15.5207 8.655 16.0477 9.029 16.433C9.41433 16.8183 9.95267 17.011 10.644 17.011C11.256 17.011 11.7377 16.824 12.089 16.45C12.4517 16.076 12.633 15.5717 12.633 14.937C12.633 14.2797 12.4573 13.7583 12.106 13.373C11.766 12.9877 11.2617 12.795 10.593 12.795Z" fill="white"/>
<path d="M46.764 49.08C46.346 47.332 45.586 46.021 44.484 45.147C43.382 44.273 41.843 43.836 39.867 43.836C36.865 43.836 34.623 44.995 33.141 47.313C31.659 49.593 30.88 53.393 30.804 58.713C31.792 57.041 33.236 55.749 35.136 54.837C37.036 53.925 39.088 53.469 41.292 53.469C43.8 53.469 46.004 54.02 47.904 55.122C49.842 56.186 51.343 57.744 52.407 59.796C53.509 61.848 54.06 64.299 54.06 67.149C54.06 69.809 53.528 72.184 52.464 74.274C51.438 76.364 49.899 78.017 47.847 79.233C45.795 80.411 43.325 81 40.437 81C36.523 81 33.445 80.145 31.203 78.435C28.999 76.687 27.441 74.236 26.529 71.082C25.655 67.928 25.218 63.995 25.218 59.283C25.218 45.375 30.12 38.421 39.924 38.421C43.724 38.421 46.707 39.447 48.873 41.499C51.077 43.551 52.369 46.078 52.749 49.08H46.764ZM39.867 58.941C37.549 58.941 35.573 59.644 33.939 61.05C32.343 62.418 31.545 64.413 31.545 67.035C31.545 69.657 32.286 71.747 33.768 73.305C35.288 74.825 37.397 75.585 40.095 75.585C42.489 75.585 44.37 74.844 45.738 73.362C47.144 71.88 47.847 69.904 47.847 67.434C47.847 64.85 47.163 62.798 45.795 61.278C44.465 59.72 42.489 58.941 39.867 58.941Z" fill="white"/>
<g clip-path="url(#clip0_117_311)">
<path d="M15.7751 27.44C12.7511 25.192 11.7081 23.393 11.0011 22C10.2931 23.393 9.25111 25.192 6.22711 27.44C1.07011 31.273 5.92411 36.622 10.1921 33.678C9.91411 35.505 8.96511 36.837 8.00111 37.411V38.001H14.0011V37.411C13.0371 36.837 12.0881 35.505 11.8101 33.678C16.0781 36.622 20.9321 31.273 15.7751 27.44Z" fill="white"/>
</g>
<defs>
<linearGradient id="paint0_linear_117_311" x1="31" y1="1" x2="31" y2="91" gradientUnits="userSpaceOnUse">
<stop stop-color="#111111" stop-opacity="0"/>
<stop offset="1" stop-color="white" stop-opacity="0.3"/>
</linearGradient>
<clipPath id="clip0_117_311">
<rect width="16" height="16" fill="white" transform="translate(3 22)"/>
</clipPath>
</defs>
</svg>
