<svg width="62" height="91" viewBox="0 0 62 91" fill="none" xmlns="http://www.w3.org/2000/svg">
<rect x="1" y="2" width="60" height="88" rx="5" fill="#111111" stroke="url(#paint0_linear_117_317)" stroke-width="2"/>
<path d="M14.231 8.664H8.723V11.571C8.961 11.2763 9.301 11.0383 9.743 10.857C10.185 10.6643 10.6553 10.568 11.154 10.568C12.0607 10.568 12.803 10.7663 13.381 11.163C13.959 11.5597 14.3783 12.0697 14.639 12.693C14.8997 13.305 15.03 13.9623 15.03 14.665C15.03 15.9683 14.656 17.0167 13.908 17.81C13.1713 18.6033 12.1173 19 10.746 19C9.454 19 8.42267 18.677 7.652 18.031C6.88133 17.385 6.445 16.5407 6.343 15.498H8.655C8.757 15.9513 8.98367 16.314 9.335 16.586C9.69767 16.858 10.1567 16.994 10.712 16.994C11.3807 16.994 11.885 16.7843 12.225 16.365C12.565 15.9457 12.735 15.3903 12.735 14.699C12.735 13.9963 12.5593 13.4637 12.208 13.101C11.868 12.727 11.3637 12.54 10.695 12.54C10.219 12.54 9.82233 12.659 9.505 12.897C9.18767 13.135 8.961 13.4523 8.825 13.849H6.547V6.573H14.231V8.664Z" fill="white"/>
<path d="M51.21 45.033H32.115V56.376C32.913 55.312 34.091 54.419 35.649 53.697C37.245 52.975 38.936 52.614 40.722 52.614C43.914 52.614 46.498 53.298 48.474 54.666C50.488 56.034 51.913 57.763 52.749 59.853C53.623 61.943 54.06 64.147 54.06 66.465C54.06 69.277 53.509 71.785 52.407 73.989C51.343 76.155 49.728 77.865 47.562 79.119C45.434 80.373 42.812 81 39.696 81C35.554 81 32.229 79.974 29.721 77.922C27.213 75.87 25.712 73.153 25.218 69.771H31.545C31.963 71.557 32.894 72.982 34.338 74.046C35.782 75.072 37.587 75.585 39.753 75.585C42.451 75.585 44.465 74.768 45.795 73.134C47.163 71.5 47.847 69.334 47.847 66.636C47.847 63.9 47.163 61.81 45.795 60.366C44.427 58.884 42.413 58.143 39.753 58.143C37.891 58.143 36.314 58.618 35.022 59.568C33.768 60.48 32.856 61.734 32.286 63.33H26.13V39.333H51.21V45.033Z" fill="white"/>
<g clip-path="url(#clip0_117_317)">
<path d="M15.7751 27.44C12.7511 25.192 11.7081 23.393 11.0011 22C10.2931 23.393 9.25111 25.192 6.22711 27.44C1.07011 31.273 5.92411 36.622 10.1921 33.678C9.91411 35.505 8.96511 36.837 8.00111 37.411V38.001H14.0011V37.411C13.0371 36.837 12.0881 35.505 11.8101 33.678C16.0781 36.622 20.9321 31.273 15.7751 27.44Z" fill="white"/>
</g>
<defs>
<linearGradient id="paint0_linear_117_317" x1="31" y1="1" x2="31" y2="91" gradientUnits="userSpaceOnUse">
<stop stop-color="#111111" stop-opacity="0"/>
<stop offset="1" stop-color="white" stop-opacity="0.3"/>
</linearGradient>
<clipPath id="clip0_117_317">
<rect width="16" height="16" fill="white" transform="translate(3 22)"/>
</clipPath>
</defs>
</svg>
