<svg width="62" height="91" viewBox="0 0 62 91" fill="none" xmlns="http://www.w3.org/2000/svg">
<rect x="1" y="2" width="60" height="88" rx="5" fill="#111111" stroke="url(#paint0_linear_117_323)" stroke-width="2"/>
<path d="M5.799 16.586V14.716L11.358 6.76H14.129V14.512H15.625V16.586H14.129V19H11.749V16.586H5.799ZM11.902 9.31L8.417 14.512H11.902V9.31Z" fill="white"/>
<path d="M23.622 72.336V67.434L42.774 39.96H50.64V66.693H55.941V72.336H50.64V81H44.256V72.336H23.622ZM44.541 46.572L31.089 66.693H44.541V46.572Z" fill="white"/>
<g clip-path="url(#clip0_117_323)">
<path d="M15.7751 27.44C12.7511 25.192 11.7081 23.393 11.0011 22C10.2931 23.393 9.25111 25.192 6.22711 27.44C1.07011 31.273 5.92411 36.622 10.1921 33.678C9.91411 35.505 8.96511 36.837 8.00111 37.411V38.001H14.0011V37.411C13.0371 36.837 12.0881 35.505 11.8101 33.678C16.0781 36.622 20.9321 31.273 15.7751 27.44Z" fill="white"/>
</g>
<defs>
<linearGradient id="paint0_linear_117_323" x1="31" y1="1" x2="31" y2="91" gradientUnits="userSpaceOnUse">
<stop stop-color="#111111" stop-opacity="0"/>
<stop offset="1" stop-color="white" stop-opacity="0.3"/>
</linearGradient>
<clipPath id="clip0_117_323">
<rect width="16" height="16" fill="white" transform="translate(3 22)"/>
</clipPath>
</defs>
</svg>
