<svg width="62" height="90" viewBox="0 0 62 90" fill="none" xmlns="http://www.w3.org/2000/svg">
<rect x="1" y="1" width="60" height="88" rx="5" fill="#111111" stroke="url(#paint0_linear_117_353)" stroke-width="2"/>
<path d="M5.21946 18V5.63636H7.45916V11.3171H7.61009L12.4336 5.63636H15.1683L10.3871 11.1843L15.2106 18H12.5181L8.82955 12.6996L7.45916 14.3175V18H5.21946Z" fill="white"/>
<path d="M20.5543 80V38.5455H26.8089V58.3416H27.315L44.7024 38.5455H52.5764L35.8569 57.2081L52.6371 80H45.1072L31.7074 61.479L26.8089 67.1062V80H20.5543Z" fill="white"/>
<g clip-path="url(#clip0_117_353)">
<path d="M15.7751 26.44C12.7511 24.192 11.7081 22.393 11.0011 21C10.2931 22.393 9.25111 24.192 6.22711 26.44C1.07011 30.273 5.92411 35.622 10.1921 32.678C9.91411 34.505 8.96511 35.837 8.00111 36.411V37.001H14.0011V36.411C13.0371 35.837 12.0881 34.505 11.8101 32.678C16.0781 35.622 20.9321 30.273 15.7751 26.44Z" fill="white"/>
</g>
<defs>
<linearGradient id="paint0_linear_117_353" x1="31" y1="0" x2="31" y2="90" gradientUnits="userSpaceOnUse">
<stop stop-color="#111111" stop-opacity="0"/>
<stop offset="1" stop-color="white" stop-opacity="0.3"/>
</linearGradient>
<clipPath id="clip0_117_353">
<rect width="16" height="16" fill="white" transform="translate(3 21)"/>
</clipPath>
</defs>
</svg>
