<svg width="62" height="91" viewBox="0 0 62 91" fill="none" xmlns="http://www.w3.org/2000/svg">
<rect x="1" y="2" width="60" height="88" rx="5" fill="#111111" stroke="url(#paint0_linear_117_299)" stroke-width="2"/>
<path d="M7.975 12.438C6.84167 11.8487 6.275 10.9363 6.275 9.701C6.275 9.089 6.428 8.53367 6.734 8.035C7.05133 7.525 7.52167 7.12267 8.145 6.828C8.77967 6.522 9.55033 6.369 10.457 6.369C11.3637 6.369 12.1287 6.522 12.752 6.828C13.3867 7.12267 13.857 7.525 14.163 8.035C14.4803 8.53367 14.639 9.089 14.639 9.701C14.639 10.3243 14.486 10.874 14.18 11.35C13.874 11.8147 13.466 12.1773 12.956 12.438C13.5793 12.71 14.0667 13.1067 14.418 13.628C14.7693 14.1493 14.945 14.767 14.945 15.481C14.945 16.2517 14.7467 16.926 14.35 17.504C13.9647 18.0707 13.432 18.507 12.752 18.813C12.072 19.119 11.307 19.272 10.457 19.272C9.607 19.272 8.842 19.119 8.162 18.813C7.49333 18.507 6.96067 18.0707 6.564 17.504C6.17867 16.926 5.986 16.2517 5.986 15.481C5.986 14.767 6.16167 14.1493 6.513 13.628C6.86433 13.0953 7.35167 12.6987 7.975 12.438ZM12.327 10.041C12.327 9.48567 12.157 9.055 11.817 8.749C11.4883 8.443 11.035 8.29 10.457 8.29C9.89033 8.29 9.437 8.443 9.097 8.749C8.76833 9.055 8.604 9.49133 8.604 10.058C8.604 10.568 8.774 10.976 9.114 11.282C9.46533 11.588 9.913 11.741 10.457 11.741C11.001 11.741 11.4487 11.588 11.8 11.282C12.1513 10.9647 12.327 10.551 12.327 10.041ZM10.457 13.475C9.811 13.475 9.284 13.6393 8.876 13.968C8.47933 14.2967 8.281 14.767 8.281 15.379C8.281 15.9457 8.47367 16.4103 8.859 16.773C9.25567 17.1243 9.78833 17.3 10.457 17.3C11.1257 17.3 11.6527 17.1187 12.038 16.756C12.4233 16.3933 12.616 15.9343 12.616 15.379C12.616 14.7783 12.4177 14.3137 12.021 13.985C11.6243 13.645 11.103 13.475 10.457 13.475Z" fill="white"/>
<path d="M31.431 59.283C27.479 57.307 25.503 54.191 25.503 49.935C25.503 47.883 26.016 46.002 27.042 44.292C28.068 42.582 29.607 41.233 31.659 40.245C33.711 39.219 36.219 38.706 39.183 38.706C42.109 38.706 44.598 39.219 46.65 40.245C48.74 41.233 50.298 42.582 51.324 44.292C52.35 46.002 52.863 47.883 52.863 49.935C52.863 52.063 52.312 53.944 51.21 55.578C50.146 57.174 48.721 58.409 46.935 59.283C49.101 60.081 50.811 61.392 52.065 63.216C53.319 65.002 53.946 67.111 53.946 69.543C53.946 72.013 53.319 74.198 52.065 76.098C50.811 77.998 49.063 79.461 46.821 80.487C44.579 81.513 42.033 82.026 39.183 82.026C36.333 82.026 33.787 81.513 31.545 80.487C29.341 79.461 27.612 77.998 26.358 76.098C25.104 74.198 24.477 72.013 24.477 69.543C24.477 67.073 25.104 64.945 26.358 63.159C27.612 61.373 29.303 60.081 31.431 59.283ZM46.65 50.733C46.65 48.605 45.985 46.971 44.655 45.831C43.325 44.691 41.501 44.121 39.183 44.121C36.903 44.121 35.098 44.691 33.768 45.831C32.438 46.971 31.773 48.624 31.773 50.79C31.773 52.69 32.457 54.248 33.825 55.464C35.231 56.642 37.017 57.231 39.183 57.231C41.349 57.231 43.135 56.623 44.541 55.407C45.947 54.191 46.65 52.633 46.65 50.733ZM39.183 62.133C36.675 62.133 34.623 62.76 33.027 64.014C31.469 65.23 30.69 66.997 30.69 69.315C30.69 71.481 31.45 73.248 32.97 74.616C34.49 75.946 36.561 76.611 39.183 76.611C41.767 76.611 43.8 75.927 45.282 74.559C46.802 73.191 47.562 71.443 47.562 69.315C47.562 67.035 46.783 65.268 45.225 64.014C43.705 62.76 41.691 62.133 39.183 62.133Z" fill="white"/>
<g clip-path="url(#clip0_117_299)">
<path d="M15.7751 27.44C12.7511 25.192 11.7081 23.393 11.0011 22C10.2931 23.393 9.25111 25.192 6.22711 27.44C1.07011 31.273 5.92411 36.622 10.1921 33.678C9.91411 35.505 8.96511 36.837 8.00111 37.411V38.001H14.0011V37.411C13.0371 36.837 12.0881 35.505 11.8101 33.678C16.0781 36.622 20.9321 31.273 15.7751 27.44Z" fill="white"/>
</g>
<defs>
<linearGradient id="paint0_linear_117_299" x1="31" y1="1" x2="31" y2="91" gradientUnits="userSpaceOnUse">
<stop stop-color="#111111" stop-opacity="0"/>
<stop offset="1" stop-color="white" stop-opacity="0.3"/>
</linearGradient>
<clipPath id="clip0_117_299">
<rect width="16" height="16" fill="white" transform="translate(3 22)"/>
</clipPath>
</defs>
</svg>
