<svg width="62" height="91" viewBox="0 0 62 91" fill="none" xmlns="http://www.w3.org/2000/svg">
<rect x="1" y="2" width="60" height="88" rx="5" fill="#111111" stroke="url(#paint0_linear_117_335)" stroke-width="2"/>
<path d="M7.649 16.314C8.737 15.4073 9.604 14.6537 10.25 14.053C10.896 13.441 11.4343 12.8063 11.865 12.149C12.2957 11.4917 12.511 10.8457 12.511 10.211C12.511 9.633 12.375 9.17967 12.103 8.851C11.831 8.52233 11.4117 8.358 10.845 8.358C10.2783 8.358 9.842 8.55067 9.536 8.936C9.23 9.31 9.07133 9.82567 9.06 10.483H6.748C6.79333 9.123 7.19567 8.09167 7.955 7.389C8.72567 6.68633 9.70033 6.335 10.879 6.335C12.171 6.335 13.1627 6.68067 13.854 7.372C14.5453 8.052 14.891 8.953 14.891 10.075C14.891 10.959 14.653 11.8033 14.177 12.608C13.701 13.4127 13.157 14.1153 12.545 14.716C11.933 15.3053 11.134 16.0193 10.148 16.858H15.163V18.83H6.765V17.062L7.649 16.314Z" fill="white"/>
<path d="M31.011 72.165C34.659 69.011 37.528 66.427 39.618 64.413C41.746 62.361 43.513 60.233 44.919 58.029C46.325 55.825 47.028 53.621 47.028 51.417C47.028 49.137 46.477 47.351 45.375 46.059C44.311 44.767 42.62 44.121 40.302 44.121C38.06 44.121 36.312 44.843 35.058 46.287C33.842 47.693 33.196 49.593 33.12 51.987H26.85C26.964 47.655 28.256 44.349 30.726 42.069C33.234 39.751 36.407 38.592 40.245 38.592C44.387 38.592 47.617 39.732 49.935 42.012C52.291 44.292 53.469 47.332 53.469 51.132C53.469 53.868 52.766 56.509 51.36 59.055C49.992 61.563 48.339 63.824 46.401 65.838C44.501 67.814 42.069 70.113 39.105 72.735L36.54 75.015H54.609V80.43H26.907V75.699L31.011 72.165Z" fill="white"/>
<g clip-path="url(#clip0_117_335)">
<path d="M15.7751 27.44C12.7511 25.192 11.7081 23.393 11.0011 22C10.2931 23.393 9.25111 25.192 6.22711 27.44C1.07011 31.273 5.92411 36.622 10.1921 33.678C9.91411 35.505 8.96511 36.837 8.00111 37.411V38.001H14.0011V37.411C13.0371 36.837 12.0881 35.505 11.8101 33.678C16.0781 36.622 20.9321 31.273 15.7751 27.44Z" fill="white"/>
</g>
<defs>
<linearGradient id="paint0_linear_117_335" x1="31" y1="1" x2="31" y2="91" gradientUnits="userSpaceOnUse">
<stop stop-color="#111111" stop-opacity="0"/>
<stop offset="1" stop-color="white" stop-opacity="0.3"/>
</linearGradient>
<clipPath id="clip0_117_335">
<rect width="16" height="16" fill="white" transform="translate(3 22)"/>
</clipPath>
</defs>
</svg>
