<svg width="62" height="90" viewBox="0 0 62 90" fill="none" xmlns="http://www.w3.org/2000/svg">
<rect x="1" y="1" width="60" height="88" rx="5" fill="#111111" stroke="url(#paint0_linear_117_347)" stroke-width="2"/>
<path d="M9.82564 13.8466H11.854L13.0554 15.4041L13.9126 16.4183L15.9712 19.0625H13.7979L12.3974 17.2876L11.7997 16.4425L9.82564 13.8466ZM16.267 11.8182C16.267 13.1503 16.0175 14.2913 15.5185 15.2411C15.0234 16.1869 14.3473 16.9113 13.4901 17.4144C12.6368 17.9175 11.6689 18.169 10.5863 18.169C9.50367 18.169 8.53374 17.9175 7.67649 17.4144C6.82327 16.9073 6.14714 16.1809 5.64808 15.2351C5.15305 14.2853 4.90554 13.1463 4.90554 11.8182C4.90554 10.486 5.15305 9.34706 5.64808 8.40128C6.14714 7.45147 6.82327 6.72502 7.67649 6.22195C8.53374 5.71887 9.50367 5.46733 10.5863 5.46733C11.6689 5.46733 12.6368 5.71887 13.4901 6.22195C14.3473 6.72502 15.0234 7.45147 15.5185 8.40128C16.0175 9.34706 16.267 10.486 16.267 11.8182ZM14.0153 11.8182C14.0153 10.8804 13.8684 10.0896 13.5746 9.44567C13.2848 8.7977 12.8823 8.30871 12.3672 7.97869C11.852 7.64465 11.2584 7.47763 10.5863 7.47763C9.91418 7.47763 9.32055 7.64465 8.8054 7.97869C8.29025 8.30871 7.88577 8.7977 7.59197 9.44567C7.3022 10.0896 7.15732 10.8804 7.15732 11.8182C7.15732 12.7559 7.3022 13.5488 7.59197 14.1967C7.88577 14.8407 8.29025 15.3297 8.8054 15.6637C9.32055 15.9937 9.91418 16.1587 10.5863 16.1587C11.2584 16.1587 11.852 15.9937 12.3672 15.6637C12.8823 15.3297 13.2848 14.8407 13.5746 14.1967C13.8684 13.5488 14.0153 12.7559 14.0153 11.8182Z" fill="white"/>
<path d="M32.7962 62.5597H38.9496L43.2812 68.207L45.3256 70.717L52.228 79.7244H45.8317L41.2166 73.7127L39.6378 71.5266L32.7962 62.5597ZM53.5639 55.2727C53.5639 59.6989 52.7543 63.5043 51.1349 66.6889C49.5156 69.8601 47.2958 72.3026 44.4755 74.0163C41.6687 75.7166 38.4773 76.5668 34.9013 76.5668C31.3118 76.5668 28.1069 75.7166 25.2866 74.0163C22.4798 72.3026 20.2667 69.8533 18.6474 66.6687C17.0281 63.484 16.2184 59.6854 16.2184 55.2727C16.2184 50.8466 17.0281 47.0479 18.6474 43.8768C20.2667 40.6921 22.4798 38.2496 25.2866 36.5494C28.1069 34.8356 31.3118 33.9787 34.9013 33.9787C38.4773 33.9787 41.6687 34.8356 44.4755 36.5494C47.2958 38.2496 49.5156 40.6921 51.1349 43.8768C52.7543 47.0479 53.5639 50.8466 53.5639 55.2727ZM47.37 55.2727C47.37 51.8991 46.8235 49.0586 45.7305 46.7511C44.6509 44.43 43.1665 42.6758 41.2773 41.4883C39.4016 40.2873 37.2763 39.6868 34.9013 39.6868C32.5128 39.6868 30.3807 40.2873 28.505 41.4883C26.6293 42.6758 25.1449 44.43 24.0518 46.7511C22.9723 49.0586 22.4325 51.8991 22.4325 55.2727C22.4325 58.6463 22.9723 61.4936 24.0518 63.8146C25.1449 66.1222 26.6293 67.8764 28.505 69.0774C30.3807 70.2649 32.5128 70.8587 34.9013 70.8587C37.2763 70.8587 39.4016 70.2649 41.2773 69.0774C43.1665 67.8764 44.6509 66.1222 45.7305 63.8146C46.8235 61.4936 47.37 58.6463 47.37 55.2727Z" fill="white"/>
<g clip-path="url(#clip0_117_347)">
<path d="M15.7751 26.44C12.7511 24.192 11.7081 22.393 11.0011 21C10.2931 22.393 9.25111 24.192 6.22711 26.44C1.07011 30.273 5.92411 35.622 10.1921 32.678C9.91411 34.505 8.96511 35.837 8.00111 36.411V37.001H14.0011V36.411C13.0371 35.837 12.0881 34.505 11.8101 32.678C16.0781 35.622 20.9321 30.273 15.7751 26.44Z" fill="white"/>
</g>
<defs>
<linearGradient id="paint0_linear_117_347" x1="31" y1="0" x2="31" y2="90" gradientUnits="userSpaceOnUse">
<stop stop-color="#111111" stop-opacity="0"/>
<stop offset="1" stop-color="white" stop-opacity="0.3"/>
</linearGradient>
<clipPath id="clip0_117_347">
<rect width="16" height="16" fill="white" transform="translate(3 21)"/>
</clipPath>
</defs>
</svg>
