<svg width="120" height="120" viewBox="0 0 120 120" fill="none" xmlns="http://www.w3.org/2000/svg">
<path d="M106.823 73.8665C103.759 42.0225 82.9828 31.4855 60.7076 33.3404C42.9522 34.8188 22.1507 46.8154 21.2924 70.3842C20.6323 88.5106 23.7089 98.5885 36.9956 102.368C36.9956 102.368 35.0763 116.479 42.9028 115.424C48.4606 114.675 49.7811 106.944 49.7811 106.944C49.7811 106.944 51.3598 114.307 55.9325 113.703C60.5052 113.099 61.5496 104.006 61.5496 104.006C61.5496 104.006 63.5841 113.103 69.5156 112.32C75.4471 111.536 75.6248 104.382 75.6248 104.382C75.6248 104.382 77.3735 111.176 82.4084 110.617C87.4695 110.056 89.9993 106.847 89.0568 99.3238C88.3486 93.6701 94.8428 91.9458 101.572 88.7306C107.856 85.7284 107.144 77.2017 106.823 73.8665Z" fill="#22093A" stroke="#22093A" stroke-linecap="round" stroke-linejoin="round"/>
<path d="M48.41 105.45C48.41 105.45 47.0895 113.181 41.5317 113.93C33.7052 114.985 35.6244 100.874 35.6244 100.874C22.3378 97.0944 19.2612 87.0165 19.9213 68.89C20.7797 45.3212 41.5812 33.3246 59.3366 31.8462C81.6117 29.9915 102.388 40.5285 105.452 72.3724C105.773 75.7076 106.485 84.2343 100.201 87.2365C93.4717 90.4516 86.9775 92.176 87.6857 97.8297C88.6282 105.353 86.0983 108.561 81.0373 109.123C76.0023 109.681 74.2536 102.888 74.2536 102.888C74.2536 102.888 74.076 110.042 68.1445 110.826C62.213 111.609 60.1784 102.512 60.1784 102.512C60.1784 102.512 59.134 111.605 54.5613 112.209C49.9886 112.813 48.41 105.45 48.41 105.45Z" fill="#E6E7E8" stroke="#22093A" stroke-linecap="round" stroke-linejoin="round"/>
<path d="M49.2659 95.2409C45.7398 94.5912 46.5391 81.8864 52.0086 81.164C57.4781 80.4415 60.3231 92.9207 57.0709 94.2101C55.8713 94.6857 53.9329 91.0663 52.8887 91.1846C51.7611 91.3121 50.603 95.4872 49.2659 95.2409Z" fill="#22093A" stroke="#22093A" stroke-linecap="round" stroke-linejoin="round"/>
<path d="M74.3183 89.9103C79.9975 89.1602 83.7602 82.1827 82.7225 74.3257C81.6848 66.4686 76.2397 60.7072 70.5605 61.4573C64.8813 62.2074 61.1186 69.1848 62.1563 77.0419C63.194 84.899 68.6391 90.6603 74.3183 89.9103Z" fill="#22093A" stroke="#22093A" stroke-linecap="round" stroke-linejoin="round"/>
<path d="M37.5232 91.2362C41.887 90.6599 44.7782 85.2985 43.9808 79.2613C43.1835 73.224 38.9995 68.7971 34.6357 69.3734C30.2719 69.9498 27.3808 75.3111 28.1781 81.3484C28.9755 87.3856 33.1594 91.8125 37.5232 91.2362Z" fill="#22093A" stroke="#22093A" stroke-linecap="round" stroke-linejoin="round"/>
<path d="M110.01 36.9231C112.864 36.7563 115.231 34.2492 113.113 32.2796C110.839 30.1657 107.114 31.7729 107.066 34.2646" fill="#E6E7E8"/>
<path d="M110.01 36.9231C112.864 36.7563 115.231 34.2492 113.113 32.2796C110.839 30.1657 107.114 31.7729 107.066 34.2646" stroke="#22093A" stroke-linecap="round" stroke-linejoin="round"/>
<path d="M103.716 35.4971C100.469 35.6868 97.7751 38.5397 100.186 40.7809C102.773 43.1864 107.012 41.3574 107.066 38.5221" fill="#E6E7E8"/>
<path d="M103.716 35.4971C100.469 35.6868 97.7751 38.5397 100.186 40.7809C102.773 43.1864 107.012 41.3574 107.066 38.5221" stroke="#22093A" stroke-linecap="round" stroke-linejoin="round"/>
<path d="M109.058 34.8078C106.473 32.3171 103.282 30.6452 102.81 32.8821C102.339 35.1189 106.495 38.5845 108.291 39.1054C109.894 39.5703 111.329 36.9968 109.058 34.8078Z" fill="#22093A" stroke="#22093A" stroke-linecap="round" stroke-linejoin="round"/>
<path d="M14.6135 102.873C12.447 102.746 10.6503 100.843 12.2582 99.3483C13.3492 98.3026 15.0814 98.3393 16.1272 99.4303C16.5036 99.823 16.7544 100.319 16.8476 100.855" fill="#E6E7E8"/>
<path d="M14.6135 102.873C12.447 102.746 10.6503 100.843 12.2582 99.3483C13.3492 98.3026 15.0814 98.3393 16.1272 99.4303C16.5036 99.823 16.7544 100.319 16.8476 100.855" stroke="#22093A" stroke-linecap="round" stroke-linejoin="round"/>
<path d="M19.3899 101.791C21.8551 101.935 23.8996 104.1 22.07 105.801C20.1062 107.627 16.8883 106.239 16.8477 104.087" fill="#E6E7E8"/>
<path d="M19.3899 101.791C21.8551 101.935 23.8996 104.1 22.07 105.801C20.1062 107.627 16.8883 106.239 16.8477 104.087" stroke="#22093A" stroke-linecap="round" stroke-linejoin="round"/>
<path d="M15.3357 101.267C17.2975 99.3769 19.7201 98.1078 20.0779 99.8057C20.4356 101.504 17.2812 104.134 15.918 104.53C14.7012 104.882 13.6115 102.929 15.3357 101.267Z" fill="#22093A" stroke="#22093A" stroke-linecap="round" stroke-linejoin="round"/>
<path d="M73.1973 87.6331C72.4131 87.0941 71.9058 86.2374 71.8105 85.2906C71.455 78.9846 74.3622 72.9376 79.5094 69.2771C84.5345 65.8259 90.7926 65.6936 97.1283 68.9033C99.4434 70.0758 102.611 71.1904 104.545 69.8347C106.833 68.2306 106.835 63.7318 106.65 62.2024C106.573 60.1772 107.911 58.3693 109.87 57.8517C111.648 57.6353 113.377 59.617 113.592 61.3926C113.884 63.7902 113.53 71.4627 108.27 75.1491C105.748 76.9163 101.26 78.2715 94.1959 74.6921C89.9538 72.5436 86.2489 72.5209 83.1831 74.6271C79.9831 76.9374 78.1405 80.687 78.2664 84.6318C78.4483 86.4146 77.1505 88.0073 75.3677 88.1892C74.6011 88.2674 73.8318 88.0702 73.1973 87.6331Z" fill="#22093A" stroke="#22093A" stroke-linecap="round" stroke-linejoin="round"/>
<path d="M73.071 87.4485C72.2781 86.9224 71.757 86.0741 71.6462 85.129C71.188 78.8295 73.9962 72.736 79.083 68.992C84.0512 65.4593 90.3063 65.2251 96.6935 68.331C99.0274 69.4656 102.212 70.5284 104.124 69.1414C106.386 67.5002 106.814 62.9666 106.605 61.4404C106.36 59.6655 107.6 58.0279 109.375 57.7828C111.15 57.5378 112.787 58.7779 113.033 60.5528C113.364 62.9453 113.135 70.6226 107.936 74.3942C105.443 76.2023 100.977 77.6305 93.8558 74.1668C89.5792 72.0876 85.8745 72.1254 82.8434 74.2813C79.6816 76.6435 77.9003 80.4226 78.0905 84.3648C78.3015 86.1444 77.0298 87.758 75.2502 87.969C74.4851 88.0597 73.7126 87.8752 73.0711 87.4484L73.071 87.4485Z" fill="#EC6509" stroke="#22093A" stroke-linecap="round" stroke-linejoin="round"/>
<path d="M72.4395 80.3047L78.2025 81.8232" stroke="#22093A" stroke-linecap="round" stroke-linejoin="round"/>
<path d="M75.1797 72.8721L79.7883 76.6485" stroke="#22093A" stroke-linecap="round" stroke-linejoin="round"/>
<path d="M82.5488 67.1357L84.3353 73.4198" stroke="#22093A" stroke-linecap="round" stroke-linejoin="round"/>
<path d="M92.7158 67.1494L91.2285 73.1401" stroke="#22093A" stroke-linecap="round" stroke-linejoin="round"/>
<path d="M100.058 69.5654L98.25 75.8705" stroke="#22093A" stroke-linecap="round" stroke-linejoin="round"/>
<path d="M104.123 69.1416L108.423 73.5603" stroke="#22093A" stroke-linecap="round" stroke-linejoin="round"/>
<path d="M106.504 64.1362L112.661 65.0635" stroke="#22093A" stroke-linecap="round" stroke-linejoin="round"/>
<path d="M14.0293 21.5155C6.18341 24.8826 15.0459 46.7181 20.7217 49.7104C24.4978 51.701 36.7769 46.3666 38.7885 39.189C40.8 32.0114 33.4648 13.1745 14.0293 21.5155Z" fill="#22093A" stroke="#22093A" stroke-linecap="round" stroke-linejoin="round"/>
<path d="M23.2518 30.9371C21.3773 31.7416 23.4947 36.9585 24.8508 37.6735C25.753 38.1491 28.6868 36.8746 29.1674 35.1597C29.5755 32.9852 28.1436 30.8915 25.9691 30.4833C25.0382 30.3086 24.0755 30.4693 23.2518 30.9371Z" fill="#22093A" stroke="#22093A" stroke-linecap="round" stroke-linejoin="round"/>
<path d="M68.3623 37.4732C71.5391 36.7837 73.4323 33.9447 73.4554 30.3034C73.4805 26.3645 72.9327 7.49624 63.0739 7.53865C57.9424 7.56071 54.3399 13.2895 52.5528 19.8662C50.614 27.0014 49.7451 37.6893 53.7936 38.0065C60.2972 38.516 62.191 19.8662 62.191 19.8662C62.191 19.8662 62.1727 38.8166 68.3623 37.4732Z" fill="#22093A" stroke="#22093A" stroke-linecap="round" stroke-linejoin="round"/>
<path d="M49.0685 10.8529C47.0166 8.56694 34.472 10.6892 32.5637 18.0626C31.3186 22.8739 31.0464 39.6385 39.3194 39.6063C47.5924 39.5742 54.0917 36.4499 53.3005 32.2513C52.5094 28.0527 42.2459 30.0623 42.2459 30.0623C42.2459 30.0623 50.9352 27.7279 50.4225 23.3144C49.9098 18.9009 41.004 22.3427 41.004 22.3427C41.004 22.3427 54.5738 16.9863 49.0685 10.8529Z" fill="#22093A" stroke="#22093A" stroke-linecap="round" stroke-linejoin="round"/>
<path d="M82.2298 8.72174C74.2883 7.36457 69.9091 29.9541 72.8278 35.3939C74.7696 39.0128 87.2323 41.0837 92.5561 36.2459C97.8799 31.408 101.902 12.0837 82.2298 8.72174Z" fill="#22093A" stroke="#22093A" stroke-linecap="round" stroke-linejoin="round"/>
<path d="M84.5961 21.3045C82.6987 20.9803 81.6524 26.3774 82.3497 27.6771C82.8137 28.5417 85.7913 29.0365 87.0633 27.8807C88.5488 26.3187 88.4869 23.8483 86.925 22.3627C86.2896 21.7584 85.4692 21.3856 84.5961 21.3045Z" fill="#22093A" stroke="#22093A" stroke-linecap="round" stroke-linejoin="round"/>
<path d="M11.6835 20.3397C3.83771 23.7068 12.7002 45.5423 18.376 48.5346C22.1521 50.5253 34.4312 45.1908 36.4428 38.0133C38.4543 30.8357 31.1191 11.9988 11.6835 20.3397Z" fill="#9736FF" stroke="#22093A" stroke-linecap="round" stroke-linejoin="round"/>
<path d="M20.9061 29.7608C19.0316 30.5653 21.149 35.7823 22.5051 36.4972C23.4073 36.9728 26.341 35.6983 26.8216 33.9834C27.2298 31.8089 25.7979 29.7152 23.6234 29.3071C22.6925 29.1323 21.7297 29.2931 20.9061 29.7608Z" fill="#22093A" stroke="#22093A" stroke-linecap="round" stroke-linejoin="round"/>
<path d="M46.7228 9.67716C44.6709 7.39116 32.1263 9.51344 30.218 16.8869C28.9729 21.6981 28.7007 38.4627 36.9737 38.4306C45.2467 38.3984 51.746 35.2741 50.9548 31.0755C50.1637 26.8769 39.9002 28.8866 39.9002 28.8866C39.9002 28.8866 48.5895 26.5521 48.0768 22.1386C47.5641 17.7251 38.6583 21.167 38.6583 21.167C38.6583 21.167 52.2281 15.8105 46.7228 9.67716Z" fill="#9736FF" stroke="#22093A" stroke-linecap="round" stroke-linejoin="round"/>
<path d="M79.8841 7.54547C71.9426 6.18832 67.5634 28.7779 70.4821 34.2176C72.4239 37.8366 84.8866 39.9075 90.2104 35.0696C95.5342 30.2317 99.5567 10.9074 79.8841 7.54547Z" fill="#9736FF" stroke="#22093A" stroke-linecap="round" stroke-linejoin="round"/>
<path d="M82.2504 20.1283C80.353 19.804 79.3067 25.2012 80.004 26.5008C80.468 27.3655 83.4456 27.8602 84.7176 26.7044C86.2031 25.1425 86.1412 22.672 84.5793 21.1864C83.9439 20.5821 83.1235 20.2094 82.2504 20.1283Z" fill="#22093A" stroke="#22093A" stroke-linecap="round" stroke-linejoin="round"/>
<path d="M60.7282 6.36286C55.5967 6.38493 51.9941 12.1137 50.2072 18.6905C48.2682 25.8256 47.3994 36.5136 51.448 36.8308C54.3462 37.0578 56.3271 33.4788 57.6347 29.4421L60.9558 29.7781C61.8122 33.6355 63.3284 36.881 66.0166 36.2975C69.1935 35.608 71.0866 32.769 71.1097 29.1276C71.1348 25.1888 70.5869 6.32047 60.7282 6.36286ZM58.8554 24.7859C59.5651 21.434 59.8452 18.6905 59.8452 18.6905C59.8452 18.6905 59.8437 21.4495 60.184 24.7859H58.8554Z" fill="#9736FF" stroke="#22093A" stroke-linecap="round" stroke-linejoin="round"/>
<path d="M11.9623 23.3486C10.1864 28.5586 13.0024 37.8956 16.8473 42.2596" stroke="#D9BBFF" stroke-linecap="round" stroke-linejoin="round"/>
<path d="M37.7875 12.7246C32.5475 15.7786 31.543 20.1146 32.4927 27.5047" stroke="#D9BBFF" stroke-linecap="round" stroke-linejoin="round"/>
<path d="M57.9502 10.4531C55.5971 12.6022 52.7299 16.8364 51.7129 28.5584" stroke="#D9BBFF" stroke-linecap="round" stroke-linejoin="round"/>
<path d="M63.7598 29.4922C64.0161 30.8103 64.1172 32.608 65.8958 33.1662" stroke="#D9BBFF" stroke-linecap="round" stroke-linejoin="round"/>
<path d="M33 30.4375C33.2259 31.9972 33.8109 33.4831 34.7089 34.7782" stroke="#D9BBFF" stroke-linecap="round" stroke-linejoin="round"/>
<path d="M79.7874 10.4532C77.4831 9.97819 75.1989 15.6928 74.0977 18.6903" stroke="#D9BBFF" stroke-linecap="round" stroke-linejoin="round"/>
<path d="M81.2754 35.003C83.6064 35.0926 85.907 34.4502 87.8545 33.166" stroke="#D9BBFF" stroke-linecap="round" stroke-linejoin="round"/>
<path d="M33.5125 65.0791C29.6951 65.0791 25.0215 69.9196 25.0215 74.7601" stroke="white" stroke-linecap="round" stroke-linejoin="round"/>
<path d="M38.6094 102.767C38.6786 104.754 38.3848 110.444 41.2878 110.429" stroke="white" stroke-linecap="round" stroke-linejoin="round"/>
<path d="M63.3359 102.767C63.7139 104.912 65.0133 106.783 66.8908 107.886" stroke="white" stroke-linecap="round" stroke-linejoin="round"/>
<path d="M76.9434 101.791C77.3172 103.463 78.3406 104.918 79.7882 105.835" stroke="white" stroke-linecap="round" stroke-linejoin="round"/>
<path d="M57.9492 74.76C57.5416 67.3005 60.7195 61.4039 65.639 58.6708C69.7182 56.2968 74.8645 56.8343 78.3652 59.9999" stroke="white" stroke-linecap="round" stroke-linejoin="round"/>
<path d="M3.56192 80.1957C3.21969 80.8841 3.20081 81.689 3.51039 82.3926C5.81122 86.8801 10.3406 89.7902 15.3784 90.0178C20.3304 90.2125 24.8347 87.6095 28.0604 82.6904C29.2391 80.8931 31.0472 78.7687 32.9641 78.8624C35.2321 78.9733 37.0287 82.0457 37.508 83.1698C38.2933 84.5992 39.9858 85.2657 41.5349 84.7558C42.8607 83.8877 43.3795 82.1979 42.7692 80.7353C42.02 78.9719 38.7061 73.8831 33.4928 73.629C30.9935 73.5073 27.2602 74.513 23.6639 79.9983C21.504 83.2916 18.8776 84.9015 15.8562 84.7823C12.7098 84.616 9.87458 82.8303 8.36559 80.0643C7.76392 78.7876 6.2412 78.2404 4.96449 78.8421C4.93742 78.8548 4.91057 78.8681 4.88396 78.8818C4.30735 79.1576 3.84131 79.6208 3.56192 80.1957Z" fill="#22093A" stroke="#22093A" stroke-linecap="round" stroke-linejoin="round"/>
<path d="M3.54392 80.3763C3.19067 81.0597 3.15855 81.8645 3.45622 82.5739C5.67746 87.0993 10.1555 90.0853 15.187 90.3961C20.131 90.671 24.674 88.139 27.9776 83.2686C29.1849 81.4891 31.0263 79.3924 32.9398 79.5171C35.2037 79.6647 37.3181 82.5771 37.7783 83.7097C38.3284 85.0038 39.8234 85.607 41.1175 85.0569C41.1484 85.0437 41.179 85.03 41.2093 85.0157C42.5564 84.4481 43.216 82.9191 42.7045 81.5498C41.9851 79.773 38.7584 74.6271 33.5543 74.2886C31.0594 74.1265 27.3131 75.0725 23.6298 80.5035C21.4177 83.7642 18.7673 85.3329 15.7507 85.1647C12.6087 84.9465 9.80503 83.1132 8.34514 80.3224C7.76731 79.0375 6.25728 78.4643 4.97238 79.0421C4.94346 79.0551 4.91478 79.0687 4.88637 79.0828C4.3055 79.3497 3.83228 79.8057 3.54392 80.3763Z" fill="#EC6509" stroke="#22093A" stroke-linecap="round" stroke-linejoin="round"/>
<path d="M5.94727 85.5278L9.44056 82.0103" stroke="#22093A" stroke-linecap="round" stroke-linejoin="round"/>
<path d="M10.8633 89.4258L12.6342 84.8628" stroke="#22093A" stroke-linecap="round" stroke-linejoin="round"/>
<path d="M18.3937 90.1726L17.1562 85.1113" stroke="#22093A" stroke-linecap="round" stroke-linejoin="round"/>
<path d="M25.6209 85.788L22.1719 82.3359" stroke="#22093A" stroke-linecap="round" stroke-linejoin="round"/>
<path d="M29.8789 80.9775L26.0762 77.4487" stroke="#22093A" stroke-linecap="round" stroke-linejoin="round"/>
<path d="M32.9395 79.5174L34.2345 74.6484" stroke="#22093A" stroke-linecap="round" stroke-linejoin="round"/>
<path d="M36.6309 81.9118L40.6407 78.6284" stroke="#22093A" stroke-linecap="round" stroke-linejoin="round"/>
</svg>
