<svg width="70" height="70" fill="none" xmlns="http://www.w3.org/2000/svg"><g filter="url(#a)"><mask id="b" style="mask-type:alpha" maskUnits="userSpaceOnUse" x="6" y="3" width="60" height="60"><circle cx="36" cy="33" r="30" fill="#000"/></mask><g mask="url(#b)"><circle cx="36" cy="33" r="29.5" fill="#166534"/><circle cx="36" cy="33" r="29.5" fill="url(#c)"/><circle cx="36" cy="33" r="29.5" stroke="url(#d)"/><circle cx="36" cy="33" r="18.25" stroke="#fff" stroke-width="1.5" stroke-dasharray="8 4"/><circle cx="36" cy="33" r="21.5" stroke="url(#e)"/><circle cx="36" cy="33" r="15.5" stroke="url(#f)"/><rect x="28" y="57" width="16" height="8" rx="4" fill="#fff"/><rect width="16" height="8" rx="4" transform="matrix(1 0 0 -1 28 10)" fill="#fff"/><rect width="16" height="8" rx="4" transform="scale(1 -1) rotate(-60.059 14.396 -52.841)" fill="#fff"/><rect x="18.918" y="12.993" width="16" height="8" rx="4" transform="rotate(119.941 18.918 12.993)" fill="#fff"/><rect width="16" height="8" rx="4" transform="scale(-1 1) rotate(53.891 -70.059 -40.422)" fill="#fff"/><rect x="10.878" y="38" width="16" height="8" rx="4" transform="rotate(59.294 10.878 38)" fill="#fff"/><path d="M27.034 39v-1.523l4.04-3.96c.386-.39.708-.737.966-1.04a3.82 3.82 0 0 0 .58-.88c.128-.285.193-.588.193-.91 0-.367-.084-.681-.25-.943a1.662 1.662 0 0 0-.688-.613 2.217 2.217 0 0 0-.994-.216c-.383 0-.718.08-1.006.238a1.642 1.642 0 0 0-.67.665c-.156.288-.233.63-.233 1.029h-2.006c0-.739.168-1.381.506-1.927a3.413 3.413 0 0 1 1.392-1.267c.594-.299 1.276-.448 2.045-.448.78 0 1.466.145 2.057.437.59.292 1.05.691 1.375 1.199.33.508.494 1.087.494 1.738 0 .436-.083.864-.25 1.285-.166.42-.46.886-.88 1.397-.417.512-1.002 1.131-1.756 1.858l-2.006 2.04v.08h5.068V39h-7.977Zm13.983.16c-.758 0-1.436-.143-2.034-.427a3.628 3.628 0 0 1-1.426-1.182A3.127 3.127 0 0 1 37 35.835h2.045c.038.477.245.868.62 1.17.375.3.825.45 1.352.45.413 0 .78-.095 1.102-.285.322-.189.576-.452.762-.79.185-.336.276-.72.272-1.153.004-.44-.089-.83-.278-1.17a2.083 2.083 0 0 0-.778-.801 2.172 2.172 0 0 0-1.137-.296 2.706 2.706 0 0 0-1.028.193 2.105 2.105 0 0 0-.801.523l-1.904-.312.608-6h6.75v1.761H39.58l-.336 3.085h.069c.215-.254.52-.464.914-.63.394-.17.826-.256 1.296-.256.704 0 1.333.166 1.886.5.553.33.989.784 1.307 1.363.318.58.477 1.243.477 1.99 0 .768-.178 1.454-.534 2.056a3.779 3.779 0 0 1-1.471 1.415c-.626.34-1.349.511-2.171.511Z" fill="#fff"/></g></g><defs><linearGradient id="d" x1="17.5" y1="9" x2="51" y2="63" gradientUnits="userSpaceOnUse"><stop stop-color="#fff"/><stop offset="1" stop-opacity="0"/></linearGradient><linearGradient id="e" x1="20.809" y1="18.857" x2="51.191" y2="50.286" gradientUnits="userSpaceOnUse"><stop offset=".281" stop-color="#0F4323"/><stop offset="1" stop-color="#FAFAFF" stop-opacity=".5"/></linearGradient><linearGradient id="f" x1="24.952" y1="22.714" x2="47.048" y2="45.571" gradientUnits="userSpaceOnUse"><stop offset=".214" stop-color="#0F4323"/><stop offset="1" stop-color="#FAFAFF" stop-opacity=".5"/></linearGradient><radialGradient id="c" cx="0" cy="0" r="1" gradientUnits="userSpaceOnUse" gradientTransform="rotate(52.765 10.056 2.548) scale(47.101)"><stop stop-color="#fff"/><stop offset="1" stop-color="#fff" stop-opacity="0"/></radialGradient><filter id="a" x="0" y="0" width="70" height="70" filterUnits="userSpaceOnUse" color-interpolation-filters="sRGB"><feFlood flood-opacity="0" result="BackgroundImageFix"/><feColorMatrix in="SourceAlpha" values="0 0 0 0 0 0 0 0 0 0 0 0 0 0 0 0 0 0 127 0" result="hardAlpha"/><feOffset dy="3"/><feGaussianBlur stdDeviation="2"/><feComposite in2="hardAlpha" operator="out"/><feColorMatrix values="0 0 0 0 0 0 0 0 0 0 0 0 0 0 0 0 0 0 0.9 0"/><feBlend in2="BackgroundImageFix" result="effect1_dropShadow_116_57"/><feColorMatrix in="SourceAlpha" values="0 0 0 0 0 0 0 0 0 0 0 0 0 0 0 0 0 0 127 0" result="hardAlpha"/><feOffset dx="-2" dy="1"/><feGaussianBlur stdDeviation="2"/><feComposite in2="hardAlpha" operator="out"/><feColorMatrix values="0 0 0 0 0 0 0 0 0 0 0 0 0 0 0 0 0 0 0.76 0"/><feBlend in2="effect1_dropShadow_116_57" result="effect2_dropShadow_116_57"/><feBlend in="SourceGraphic" in2="effect2_dropShadow_116_57" result="shape"/></filter></defs></svg>