<svg width="70" height="70" fill="none" xmlns="http://www.w3.org/2000/svg"><g filter="url(#a)"><mask id="b" style="mask-type:alpha" maskUnits="userSpaceOnUse" x="6" y="3" width="60" height="60"><circle cx="36" cy="33" r="30" fill="#000"/></mask><g mask="url(#b)"><circle cx="36" cy="33" r="29.5" fill="#0500FF"/><circle cx="36" cy="33" r="29.5" fill="url(#c)"/><circle cx="36" cy="33" r="29.5" stroke="url(#d)"/><circle cx="36" cy="33" r="18.25" stroke="#fff" stroke-width="1.5" stroke-dasharray="8 4"/><circle cx="36" cy="33" r="21.5" stroke="url(#e)"/><circle cx="36" cy="33" r="15.5" stroke="url(#f)"/><rect x="28" y="57" width="16" height="8" rx="4" fill="#fff"/><rect width="16" height="8" rx="4" transform="matrix(1 0 0 -1 28 10)" fill="#fff"/><rect width="16" height="8" rx="4" transform="scale(1 -1) rotate(-60.059 14.396 -52.841)" fill="#fff"/><rect x="18.918" y="12.993" width="16" height="8" rx="4" transform="rotate(119.941 18.918 12.993)" fill="#fff"/><rect width="16" height="8" rx="4" transform="scale(-1 1) rotate(53.891 -70.059 -40.422)" fill="#fff"/><rect x="10.878" y="38" width="16" height="8" rx="4" transform="rotate(59.294 10.878 38)" fill="#fff"/><path d="M31.08 39.16c-.758 0-1.436-.143-2.034-.427a3.628 3.628 0 0 1-1.427-1.182 3.127 3.127 0 0 1-.556-1.716h2.045c.038.477.244.868.62 1.17.374.3.825.45 1.351.45.413 0 .78-.095 1.103-.285.322-.189.576-.452.761-.79.186-.336.277-.72.273-1.153.004-.44-.09-.83-.279-1.17a2.083 2.083 0 0 0-.778-.801 2.172 2.172 0 0 0-1.136-.296 2.706 2.706 0 0 0-1.029.193 2.105 2.105 0 0 0-.8.523l-1.904-.312.608-6h6.75v1.761h-5.006l-.335 3.085h.068c.216-.254.52-.464.915-.63.394-.17.826-.256 1.295-.256.705 0 1.334.166 1.887.5.553.33.988.784 1.306 1.363.319.58.478 1.243.478 1.99 0 .768-.178 1.454-.534 2.056a3.779 3.779 0 0 1-1.472 1.415c-.625.34-1.349.511-2.17.511Zm10.38.062c-.935 0-1.738-.237-2.409-.71-.666-.478-1.18-1.165-1.54-2.063-.356-.902-.534-1.987-.534-3.256.004-1.269.184-2.348.54-3.238.36-.894.873-1.576 1.54-2.046.67-.47 1.471-.704 2.403-.704.932 0 1.733.234 2.404.704.67.47 1.183 1.152 1.54 2.046.36.894.54 1.973.54 3.238 0 1.273-.18 2.36-.54 3.262-.357.897-.87 1.583-1.54 2.056-.667.474-1.468.71-2.404.71Zm0-1.779c.727 0 1.301-.358 1.722-1.074.424-.72.636-1.778.636-3.176 0-.924-.096-1.7-.29-2.33-.193-.628-.465-1.102-.818-1.42a1.791 1.791 0 0 0-1.25-.483c-.723 0-1.295.36-1.716 1.08-.42.716-.632 1.767-.636 3.153-.004.928.089 1.709.278 2.341.194.633.466 1.11.819 1.432.352.318.77.477 1.255.477Z" fill="#fff"/></g></g><defs><linearGradient id="d" x1="17.5" y1="9" x2="51" y2="63" gradientUnits="userSpaceOnUse"><stop stop-color="#fff"/><stop offset="1" stop-opacity="0"/></linearGradient><linearGradient id="e" x1="20.809" y1="18.857" x2="51.191" y2="50.286" gradientUnits="userSpaceOnUse"><stop stop-color="#090042"/><stop offset="1" stop-color="#FAFAFF" stop-opacity=".3"/></linearGradient><linearGradient id="f" x1="24.952" y1="22.714" x2="47.048" y2="45.571" gradientUnits="userSpaceOnUse"><stop stop-color="#090042"/><stop offset="1" stop-color="#FAFAFF" stop-opacity="0"/></linearGradient><radialGradient id="c" cx="0" cy="0" r="1" gradientUnits="userSpaceOnUse" gradientTransform="matrix(30.50002 35.5 -35.5 30.50002 9 1)"><stop stop-color="#fff" stop-opacity=".32"/><stop offset="1" stop-opacity=".2"/></radialGradient><filter id="a" x="0" y="0" width="70" height="70" filterUnits="userSpaceOnUse" color-interpolation-filters="sRGB"><feFlood flood-opacity="0" result="BackgroundImageFix"/><feColorMatrix in="SourceAlpha" values="0 0 0 0 0 0 0 0 0 0 0 0 0 0 0 0 0 0 127 0" result="hardAlpha"/><feOffset dy="3"/><feGaussianBlur stdDeviation="2"/><feComposite in2="hardAlpha" operator="out"/><feColorMatrix values="0 0 0 0 0 0 0 0 0 0 0 0 0 0 0 0 0 0 0.9 0"/><feBlend in2="BackgroundImageFix" result="effect1_dropShadow_114_22"/><feColorMatrix in="SourceAlpha" values="0 0 0 0 0 0 0 0 0 0 0 0 0 0 0 0 0 0 127 0" result="hardAlpha"/><feOffset dx="-2" dy="1"/><feGaussianBlur stdDeviation="2"/><feComposite in2="hardAlpha" operator="out"/><feColorMatrix values="0 0 0 0 0 0 0 0 0 0 0 0 0 0 0 0 0 0 0.76 0"/><feBlend in2="effect1_dropShadow_114_22" result="effect2_dropShadow_114_22"/><feBlend in="SourceGraphic" in2="effect2_dropShadow_114_22" result="shape"/></filter></defs></svg>