<svg width="70" height="70" fill="none" xmlns="http://www.w3.org/2000/svg"><g filter="url(#a)"><mask id="b" style="mask-type:alpha" maskUnits="userSpaceOnUse" x="6" y="3" width="60" height="60"><circle cx="36" cy="33" r="30" fill="#000"/></mask><g mask="url(#b)"><circle cx="36" cy="33" r="29.5" fill="#FF6B00"/><circle cx="36" cy="33" r="29.5" fill="url(#c)"/><circle cx="36" cy="33" r="29.5" stroke="url(#d)"/><circle cx="36" cy="33" r="18.25" stroke="#fff" stroke-width="1.5" stroke-dasharray="8 4"/><circle cx="36" cy="33" r="21.5" stroke="url(#e)"/><circle cx="36" cy="33" r="15.5" stroke="url(#f)"/><rect x="28" y="57" width="16" height="8" rx="4" fill="#fff"/><rect width="16" height="8" rx="4" transform="matrix(1 0 0 -1 28 10)" fill="#fff"/><rect width="16" height="8" rx="4" transform="scale(1 -1) rotate(-60.059 14.396 -52.841)" fill="#fff"/><rect x="18.918" y="12.993" width="16" height="8" rx="4" transform="rotate(119.941 18.918 12.993)" fill="#fff"/><rect width="16" height="8" rx="4" transform="scale(-1 1) rotate(53.891 -70.059 -40.422)" fill="#fff"/><rect x="10.878" y="38" width="16" height="8" rx="4" transform="rotate(59.294 10.878 38)" fill="#fff"/><path d="M33.767 27.364V39h-2.108v-9.585h-.068l-2.722 1.738v-1.931l2.892-1.858h2.006Zm3.412 8.897-.005-2.483h.33l3.136-3.505h2.403l-3.858 4.295h-.426l-1.58 1.693ZM35.304 39V27.364h2.057V39h-2.057Zm5.478 0-2.841-3.972 1.386-1.448L43.242 39h-2.46Z" fill="#fff"/></g></g><defs><linearGradient id="d" x1="17.5" y1="9" x2="51" y2="63" gradientUnits="userSpaceOnUse"><stop stop-color="#fff"/><stop offset="1" stop-opacity="0"/></linearGradient><linearGradient id="e" x1="20.809" y1="18.857" x2="51.191" y2="50.286" gradientUnits="userSpaceOnUse"><stop offset=".359" stop-color="#803600"/><stop offset="1" stop-color="#FAFAFF" stop-opacity=".7"/></linearGradient><linearGradient id="f" x1="24.952" y1="22.714" x2="47.048" y2="45.571" gradientUnits="userSpaceOnUse"><stop offset=".354" stop-color="#803601"/><stop offset="1" stop-color="#FAFAFF" stop-opacity=".5"/></linearGradient><radialGradient id="c" cx="0" cy="0" r="1" gradientUnits="userSpaceOnUse" gradientTransform="rotate(52.765 10.056 2.548) scale(47.101)"><stop stop-color="#fff"/><stop offset="1" stop-color="#fff" stop-opacity="0"/></radialGradient><filter id="a" x="0" y="0" width="70" height="70" filterUnits="userSpaceOnUse" color-interpolation-filters="sRGB"><feFlood flood-opacity="0" result="BackgroundImageFix"/><feColorMatrix in="SourceAlpha" values="0 0 0 0 0 0 0 0 0 0 0 0 0 0 0 0 0 0 127 0" result="hardAlpha"/><feOffset dy="3"/><feGaussianBlur stdDeviation="2"/><feComposite in2="hardAlpha" operator="out"/><feColorMatrix values="0 0 0 0 0 0 0 0 0 0 0 0 0 0 0 0 0 0 0.9 0"/><feBlend in2="BackgroundImageFix" result="effect1_dropShadow_116_109"/><feColorMatrix in="SourceAlpha" values="0 0 0 0 0 0 0 0 0 0 0 0 0 0 0 0 0 0 127 0" result="hardAlpha"/><feOffset dx="-2" dy="1"/><feGaussianBlur stdDeviation="2"/><feComposite in2="hardAlpha" operator="out"/><feColorMatrix values="0 0 0 0 0 0 0 0 0 0 0 0 0 0 0 0 0 0 0.76 0"/><feBlend in2="effect1_dropShadow_116_109" result="effect2_dropShadow_116_109"/><feBlend in="SourceGraphic" in2="effect2_dropShadow_116_109" result="shape"/></filter></defs></svg>