<svg xmlns="http://www.w3.org/2000/svg" width="62" height="90" fill="none"><rect width="60" height="88" x="1" y="1" fill="url(#a)" stroke="url(#b)" stroke-width="2" rx="5"/><path fill="#fff" d="M17.36 30.223a3.33 3.33 0 0 1-.735 2.093 3.143 3.143 0 0 1-1.863 1.12 3.078 3.078 0 0 1-2.126-.374 3.238 3.238 0 0 1-1.399-1.693c-.002 2.148.131 3.577 2.105 4.656H7.967c1.974-1.079 2.108-2.507 2.105-4.656a3.254 3.254 0 0 1-1.099 1.491 3.083 3.083 0 0 1-3.473.168 3.225 3.225 0 0 1-1.229-1.378 3.356 3.356 0 0 1-.292-1.849c.08-.632.337-1.227.74-1.71a3.152 3.152 0 0 1 1.53-1.008 3.067 3.067 0 0 1 1.815.027 3.353 3.353 0 0 1-.214-3.38c.267-.528.67-.972 1.164-1.282a3.089 3.089 0 0 1 1.64-.473c.579 0 1.146.163 1.64.473.495.31.898.754 1.165 1.283a3.353 3.353 0 0 1-.214 3.38 3.069 3.069 0 0 1 1.466-.108c.49.083.955.285 1.355.588.401.303.727.7.952 1.156.225.458.342.963.342 1.476ZM9.826 13.847h2.028l1.201 1.557.858 1.014 2.058 2.645h-2.173l-1.4-1.775-.598-.846-1.974-2.595Zm6.441-2.029c0 1.332-.25 2.473-.748 3.423-.496.946-1.172 1.67-2.029 2.173-.853.503-1.821.755-2.904.755-1.082 0-2.052-.252-2.91-.755-.853-.507-1.529-1.233-2.028-2.179-.495-.95-.742-2.089-.742-3.417 0-1.332.247-2.47.742-3.417.5-.95 1.175-1.676 2.028-2.179.858-.503 1.828-.755 2.91-.755 1.083 0 2.05.252 2.904.755.857.503 1.533 1.23 2.028 2.18.5.945.749 2.084.749 3.416Zm-2.252 0c0-.938-.147-1.728-.44-2.372-.29-.648-.693-1.137-1.208-1.467-.515-.334-1.109-.501-1.78-.501-.673 0-1.266.167-1.782.5-.515.33-.92.82-1.213 1.468-.29.644-.435 1.434-.435 2.372s.145 1.73.435 2.379c.294.644.698 1.133 1.213 1.467.516.33 1.11.495 1.781.495.672 0 1.266-.165 1.781-.495.515-.334.918-.823 1.208-1.467.293-.648.44-1.441.44-2.379ZM33.796 62.56h6.154l4.331 5.647 2.045 2.51 6.902 9.007h-6.396l-4.615-6.011-1.58-2.186-6.84-8.967Zm20.768-7.287c0 4.426-.81 8.231-2.43 11.416-1.618 3.171-3.838 5.614-6.659 7.327-2.806 1.7-5.998 2.55-9.574 2.55-3.59 0-6.794-.85-9.614-2.55-2.807-1.713-5.02-4.163-6.64-7.347-1.619-3.185-2.429-6.984-2.429-11.396 0-4.426.81-8.225 2.43-11.396 1.619-3.185 3.832-5.627 6.639-7.328 2.82-1.713 6.025-2.57 9.614-2.57 3.576 0 6.768.857 9.574 2.57 2.82 1.7 5.04 4.143 6.66 7.328 1.62 3.17 2.429 6.97 2.429 11.396Zm-6.194 0c0-3.374-.546-6.214-1.64-8.522-1.08-2.321-2.563-4.075-4.453-5.263-1.875-1.2-4-1.801-6.376-1.801-2.388 0-4.52.6-6.396 1.801-1.876 1.188-3.36 2.942-4.453 5.263-1.08 2.308-1.62 5.148-1.62 8.522 0 3.373.54 6.22 1.62 8.542 1.093 2.307 2.577 4.061 4.453 5.262 1.876 1.188 4.008 1.782 6.396 1.782 2.375 0 4.5-.594 6.376-1.782 1.89-1.2 3.374-2.955 4.453-5.262 1.094-2.321 1.64-5.169 1.64-8.542Z"/><defs><linearGradient id="a" x1="0" x2="57.812" y1="0" y2="90.804" gradientUnits="userSpaceOnUse"><stop stop-color="#89B804"/><stop offset=".46" stop-color="#618202"/><stop offset="1" stop-color="#475F03"/></linearGradient><linearGradient id="b" x1="31" x2="31" y1="0" y2="90" gradientUnits="userSpaceOnUse"><stop stop-opacity="0"/><stop offset="1" stop-color="#fff" stop-opacity=".3"/></linearGradient></defs></svg>