<svg xmlns="http://www.w3.org/2000/svg" width="62" height="91" fill="none"><rect width="60" height="88" x="1" y="2" fill="url(#a)" stroke="url(#b)" stroke-width="2" rx="5"/><path fill="#fff" d="M17.36 31.223c0 .765-.26 1.506-.735 2.093a3.143 3.143 0 0 1-1.863 1.12 3.077 3.077 0 0 1-2.126-.374 3.237 3.237 0 0 1-1.399-1.693c-.002 2.148.131 3.577 2.105 4.656H7.967c1.974-1.079 2.108-2.507 2.105-4.656a3.253 3.253 0 0 1-1.099 1.491 3.084 3.084 0 0 1-3.473.168 3.226 3.226 0 0 1-1.229-1.378 3.356 3.356 0 0 1-.292-1.849c.08-.632.337-1.227.74-1.71a3.151 3.151 0 0 1 1.53-1.008 3.066 3.066 0 0 1 1.815.027 3.353 3.353 0 0 1-.214-3.38c.267-.528.67-.972 1.164-1.282a3.089 3.089 0 0 1 1.64-.473c.579 0 1.146.163 1.64.473.495.31.898.754 1.165 1.283a3.353 3.353 0 0 1-.214 3.38 3.07 3.07 0 0 1 1.466-.108c.49.083.955.285 1.355.588.401.303.727.7.952 1.156.225.458.342.963.342 1.476ZM7.975 12.438c-1.133-.59-1.7-1.502-1.7-2.737 0-.612.153-1.167.459-1.666.317-.51.788-.912 1.411-1.207.635-.306 1.405-.459 2.312-.459.907 0 1.672.153 2.295.459.635.295 1.105.697 1.411 1.207a3.04 3.04 0 0 1 .476 1.666c0 .623-.153 1.173-.459 1.649a3.158 3.158 0 0 1-1.224 1.088c.623.272 1.11.669 1.462 1.19.351.521.527 1.139.527 1.853 0 .77-.198 1.445-.595 2.023-.385.567-.918 1.003-1.598 1.309-.68.306-1.445.459-2.295.459-.85 0-1.615-.153-2.295-.459a3.872 3.872 0 0 1-1.598-1.309c-.385-.578-.578-1.252-.578-2.023 0-.714.176-1.332.527-1.853.351-.533.839-.93 1.462-1.19Zm4.352-2.397c0-.555-.17-.986-.51-1.292-.329-.306-.782-.459-1.36-.459-.567 0-1.02.153-1.36.459-.329.306-.493.742-.493 1.309 0 .51.17.918.51 1.224.351.306.799.459 1.343.459.544 0 .992-.153 1.343-.459.351-.317.527-.731.527-1.241Zm-1.87 3.434c-.646 0-1.173.164-1.581.493-.397.329-.595.799-.595 1.411 0 .567.193 1.031.578 1.394.397.351.93.527 1.598.527.669 0 1.196-.181 1.581-.544.385-.363.578-.822.578-1.377 0-.6-.198-1.065-.595-1.394-.397-.34-.918-.51-1.564-.51ZM31.431 59.283c-3.952-1.976-5.928-5.092-5.928-9.348 0-2.052.513-3.933 1.539-5.643 1.026-1.71 2.565-3.059 4.617-4.047 2.052-1.026 4.56-1.539 7.524-1.539 2.926 0 5.415.513 7.467 1.539 2.09.988 3.648 2.337 4.674 4.047 1.026 1.71 1.539 3.591 1.539 5.643 0 2.128-.551 4.009-1.653 5.643-1.064 1.596-2.489 2.831-4.275 3.705 2.166.798 3.876 2.109 5.13 3.933 1.254 1.786 1.881 3.895 1.881 6.327 0 2.47-.627 4.655-1.881 6.555-1.254 1.9-3.002 3.363-5.244 4.389-2.242 1.026-4.788 1.539-7.638 1.539-2.85 0-5.396-.513-7.638-1.539-2.204-1.026-3.933-2.489-5.187-4.389-1.254-1.9-1.881-4.085-1.881-6.555 0-2.47.627-4.598 1.881-6.384 1.254-1.786 2.945-3.078 5.073-3.876Zm15.219-8.55c0-2.128-.665-3.762-1.995-4.902-1.33-1.14-3.154-1.71-5.472-1.71-2.28 0-4.085.57-5.415 1.71-1.33 1.14-1.995 2.793-1.995 4.959 0 1.9.684 3.458 2.052 4.674 1.406 1.178 3.192 1.767 5.358 1.767 2.166 0 3.952-.608 5.358-1.824 1.406-1.216 2.109-2.774 2.109-4.674Zm-7.467 11.4c-2.508 0-4.56.627-6.156 1.881-1.558 1.216-2.337 2.983-2.337 5.301 0 2.166.76 3.933 2.28 5.301 1.52 1.33 3.591 1.995 6.213 1.995 2.584 0 4.617-.684 6.099-2.052 1.52-1.368 2.28-3.116 2.28-5.244 0-2.28-.779-4.047-2.337-5.301-1.52-1.254-3.534-1.881-6.042-1.881Z"/><defs><linearGradient id="a" x1="0" x2="57.812" y1="1" y2="91.804" gradientUnits="userSpaceOnUse"><stop stop-color="#89B804"/><stop offset=".46" stop-color="#618202"/><stop offset="1" stop-color="#475F03"/></linearGradient><linearGradient id="b" x1="31" x2="31" y1="1" y2="91" gradientUnits="userSpaceOnUse"><stop stop-opacity="0"/><stop offset="1" stop-color="#fff" stop-opacity=".3"/></linearGradient></defs></svg>