<svg xmlns="http://www.w3.org/2000/svg" width="62" height="90" fill="none"><rect width="60" height="88" x="1" y="1" fill="url(#a)" stroke="url(#b)" stroke-width="2" rx="5"/><path fill="#fff" d="M17.36 30.223a3.33 3.33 0 0 1-.735 2.093 3.143 3.143 0 0 1-1.863 1.12 3.078 3.078 0 0 1-2.126-.374 3.238 3.238 0 0 1-1.399-1.693c-.002 2.148.131 3.577 2.105 4.656H7.967c1.974-1.079 2.108-2.507 2.105-4.656a3.254 3.254 0 0 1-1.099 1.491 3.083 3.083 0 0 1-3.473.168 3.225 3.225 0 0 1-1.229-1.378 3.356 3.356 0 0 1-.292-1.849c.08-.632.337-1.227.74-1.71a3.152 3.152 0 0 1 1.53-1.008 3.067 3.067 0 0 1 1.815.027 3.353 3.353 0 0 1-.214-3.38c.267-.528.67-.972 1.164-1.282a3.089 3.089 0 0 1 1.64-.473c.579 0 1.146.163 1.64.473.495.31.898.754 1.165 1.283a3.353 3.353 0 0 1-.214 3.38 3.069 3.069 0 0 1 1.466-.108c.49.083.955.285 1.355.588.401.303.727.7.952 1.156.225.458.342.963.342 1.476ZM6.22 18V5.636h2.24v5.681h.15l4.824-5.68h2.734l-4.78 5.547L16.21 18h-2.693L9.83 12.7l-1.37 1.618V18H6.22ZM21.554 80V38.545h6.255v19.797h.506l17.387-19.797h7.874l-16.72 18.663L53.638 80h-7.53l-13.4-18.521-4.898 5.627V80h-6.255Z"/><defs><linearGradient id="a" x1="0" x2="57.812" y1="0" y2="90.804" gradientUnits="userSpaceOnUse"><stop stop-color="#89B804"/><stop offset=".46" stop-color="#618202"/><stop offset="1" stop-color="#475F03"/></linearGradient><linearGradient id="b" x1="31" x2="31" y1="0" y2="90" gradientUnits="userSpaceOnUse"><stop stop-opacity="0"/><stop offset="1" stop-color="#fff" stop-opacity=".3"/></linearGradient></defs></svg>