<svg xmlns="http://www.w3.org/2000/svg" width="62" height="91" fill="none"><rect width="60" height="88" x="1" y="2" fill="url(#a)" stroke="url(#b)" stroke-width="2" rx="5"/><path fill="#fff" d="M17.36 31.223a3.33 3.33 0 0 1-.735 2.093 3.143 3.143 0 0 1-1.863 1.12 3.078 3.078 0 0 1-2.126-.374 3.238 3.238 0 0 1-1.399-1.693c-.002 2.148.131 3.577 2.105 4.656H7.967c1.974-1.079 2.108-2.507 2.105-4.656a3.254 3.254 0 0 1-1.099 1.491 3.083 3.083 0 0 1-3.473.168 3.225 3.225 0 0 1-1.229-1.378 3.356 3.356 0 0 1-.292-1.849c.08-.632.337-1.227.74-1.71a3.152 3.152 0 0 1 1.53-1.008 3.067 3.067 0 0 1 1.815.027 3.353 3.353 0 0 1-.214-3.38c.267-.528.67-.972 1.164-1.282a3.089 3.089 0 0 1 1.64-.473c.579 0 1.146.163 1.64.473.495.31.898.754 1.165 1.283a3.353 3.353 0 0 1-.214 3.38 3.069 3.069 0 0 1 1.466-.108c.49.083.955.285 1.355.588.401.303.727.7.952 1.156.225.458.342.963.342 1.476ZM14.092 7.134v8.33c0 1.156-.334 2.057-1.003 2.703-.669.635-1.564.952-2.686.952-1.133 0-2.051-.329-2.754-.986-.691-.657-1.037-1.575-1.037-2.754h2.38c.011.51.13.907.357 1.19.238.283.578.425 1.02.425.43 0 .76-.136.986-.408.227-.272.34-.646.34-1.122v-8.33h2.397ZM49.878 39.385v28.557c0 3.534-1.083 6.327-3.249 8.379-2.128 2.052-4.94 3.078-8.436 3.078-3.496 0-6.327-1.026-8.493-3.078-2.128-2.052-3.192-4.845-3.192-8.379h6.555c.038 1.748.475 3.135 1.311 4.161.874 1.026 2.147 1.539 3.819 1.539 1.672 0 2.945-.513 3.819-1.539.874-1.064 1.311-2.451 1.311-4.161V39.385h6.555Z"/><defs><linearGradient id="a" x1="0" x2="57.812" y1="1" y2="91.804" gradientUnits="userSpaceOnUse"><stop stop-color="#89B804"/><stop offset=".46" stop-color="#618202"/><stop offset="1" stop-color="#475F03"/></linearGradient><linearGradient id="b" x1="31" x2="31" y1="1" y2="91" gradientUnits="userSpaceOnUse"><stop stop-opacity="0"/><stop offset="1" stop-color="#fff" stop-opacity=".3"/></linearGradient></defs></svg>