<svg xmlns="http://www.w3.org/2000/svg" width="62" height="91" fill="none"><rect width="60" height="88" x="1" y="2" fill="url(#a)" stroke="url(#b)" stroke-width="2" rx="5"/><path fill="#fff" d="M17.36 31.223a3.33 3.33 0 0 1-.735 2.093 3.143 3.143 0 0 1-1.863 1.12 3.078 3.078 0 0 1-2.126-.374 3.238 3.238 0 0 1-1.399-1.693c-.002 2.148.131 3.577 2.105 4.656H7.967c1.974-1.079 2.108-2.507 2.105-4.656a3.254 3.254 0 0 1-1.099 1.491 3.083 3.083 0 0 1-3.473.168 3.225 3.225 0 0 1-1.229-1.378 3.356 3.356 0 0 1-.292-1.849c.08-.632.337-1.227.74-1.71a3.152 3.152 0 0 1 1.53-1.008 3.067 3.067 0 0 1 1.815.027 3.353 3.353 0 0 1-.214-3.38c.267-.528.67-.972 1.164-1.282a3.089 3.089 0 0 1 1.64-.473c.579 0 1.146.163 1.64.473.495.31.898.754 1.165 1.283a3.353 3.353 0 0 1-.214 3.38 3.069 3.069 0 0 1 1.466-.108c.49.083.955.285 1.355.588.401.303.727.7.952 1.156.225.458.342.963.342 1.476ZM5.935 9.871c.057-1.133.453-2.006 1.19-2.618.748-.623 1.728-.935 2.941-.935.827 0 1.536.147 2.125.442.59.283 1.031.674 1.326 1.173.306.487.459 1.043.459 1.666 0 .714-.187 1.32-.561 1.819-.363.487-.799.816-1.309.986v.068c.657.204 1.167.567 1.53 1.088.374.521.561 1.19.561 2.006 0 .68-.159 1.286-.476 1.819-.306.533-.765.952-1.377 1.258-.6.295-1.326.442-2.176.442-1.28 0-2.323-.323-3.128-.969-.805-.646-1.23-1.598-1.275-2.856h2.312c.023.555.21 1.003.561 1.343.363.329.856.493 1.479.493.578 0 1.02-.159 1.326-.476.317-.329.476-.748.476-1.258 0-.68-.215-1.167-.646-1.462-.43-.295-1.1-.442-2.006-.442h-.493v-1.955h.493c1.61 0 2.414-.538 2.414-1.615 0-.487-.147-.867-.442-1.139-.283-.272-.697-.408-1.241-.408-.533 0-.946.147-1.241.442-.283.283-.448.646-.493 1.088H5.935ZM26.306 48.707c.228-3.534 1.577-6.289 4.047-8.265 2.508-1.976 5.7-2.964 9.576-2.964 2.66 0 4.959.475 6.897 1.425 1.938.95 3.401 2.242 4.389 3.876.988 1.634 1.482 3.477 1.482 5.529 0 2.356-.627 4.37-1.881 6.042-1.254 1.672-2.755 2.793-4.503 3.363v.228c2.242.684 3.99 1.938 5.244 3.762 1.254 1.786 1.881 4.085 1.881 6.897 0 2.242-.513 4.237-1.539 5.985-1.026 1.748-2.546 3.135-4.56 4.161-2.014.988-4.427 1.482-7.239 1.482-4.104 0-7.486-1.045-10.146-3.135-2.622-2.128-4.028-5.168-4.218-9.12h6.27c.152 2.014.931 3.667 2.337 4.959 1.406 1.254 3.306 1.881 5.7 1.881 2.318 0 4.104-.627 5.358-1.881 1.254-1.292 1.881-2.945 1.881-4.959 0-2.66-.855-4.541-2.565-5.643-1.672-1.14-4.256-1.71-7.752-1.71h-1.482v-5.358h1.539c3.078-.038 5.415-.551 7.011-1.539 1.634-.988 2.451-2.546 2.451-4.674 0-1.824-.589-3.268-1.767-4.332-1.178-1.102-2.85-1.653-5.016-1.653-2.128 0-3.781.551-4.959 1.653-1.178 1.064-1.881 2.394-2.109 3.99h-6.327Z"/><defs><linearGradient id="a" x1="0" x2="57.812" y1="1" y2="91.804" gradientUnits="userSpaceOnUse"><stop stop-color="#89B804"/><stop offset=".46" stop-color="#618202"/><stop offset="1" stop-color="#475F03"/></linearGradient><linearGradient id="b" x1="31" x2="31" y1="1" y2="91" gradientUnits="userSpaceOnUse"><stop stop-opacity="0"/><stop offset="1" stop-color="#fff" stop-opacity=".3"/></linearGradient></defs></svg>