<svg xmlns="http://www.w3.org/2000/svg" width="62" height="91" fill="none"><rect width="60" height="88" x="1" y="2" fill="url(#a)" stroke="url(#b)" stroke-width="2" rx="5"/><path fill="#fff" d="M17.36 31.223a3.33 3.33 0 0 1-.735 2.093 3.143 3.143 0 0 1-1.863 1.12 3.078 3.078 0 0 1-2.126-.374 3.238 3.238 0 0 1-1.399-1.693c-.002 2.148.131 3.577 2.105 4.656H7.967c1.974-1.079 2.108-2.507 2.105-4.656a3.254 3.254 0 0 1-1.099 1.491 3.083 3.083 0 0 1-3.473.168 3.225 3.225 0 0 1-1.229-1.378 3.356 3.356 0 0 1-.292-1.849c.08-.632.337-1.227.74-1.71a3.152 3.152 0 0 1 1.53-1.008 3.067 3.067 0 0 1 1.815.027 3.353 3.353 0 0 1-.214-3.38c.267-.528.67-.972 1.164-1.282a3.089 3.089 0 0 1 1.64-.473c.579 0 1.146.163 1.64.473.495.31.898.754 1.165 1.283a3.353 3.353 0 0 1-.214 3.38 3.069 3.069 0 0 1 1.466-.108c.49.083.955.285 1.355.588.401.303.727.7.952 1.156.225.458.342.963.342 1.476ZM7.649 16.314a66.168 66.168 0 0 0 2.601-2.261 10.764 10.764 0 0 0 1.615-1.904c.43-.657.646-1.303.646-1.938 0-.578-.136-1.031-.408-1.36-.272-.329-.691-.493-1.258-.493-.567 0-1.003.193-1.309.578-.306.374-.465.89-.476 1.547H6.748c.045-1.36.448-2.391 1.207-3.094.77-.703 1.745-1.054 2.924-1.054 1.292 0 2.284.346 2.975 1.037.691.68 1.037 1.581 1.037 2.703 0 .884-.238 1.728-.714 2.533a10.232 10.232 0 0 1-1.632 2.108 53.892 53.892 0 0 1-2.397 2.142h5.015v1.972H6.765v-1.768l.884-.748ZM30.011 71.165c3.648-3.154 6.517-5.738 8.607-7.752 2.128-2.052 3.895-4.18 5.301-6.384 1.406-2.204 2.109-4.408 2.109-6.612 0-2.28-.551-4.066-1.653-5.358-1.064-1.292-2.755-1.938-5.073-1.938-2.242 0-3.99.722-5.244 2.166-1.216 1.406-1.862 3.306-1.938 5.7h-6.27c.114-4.332 1.406-7.638 3.876-9.918 2.508-2.318 5.681-3.477 9.519-3.477 4.142 0 7.372 1.14 9.69 3.42 2.356 2.28 3.534 5.32 3.534 9.12 0 2.736-.703 5.377-2.109 7.923a31.447 31.447 0 0 1-4.959 6.783c-1.9 1.976-4.332 4.275-7.296 6.897l-2.565 2.28h18.069v5.415H25.907v-4.731l4.104-3.534Z"/><defs><linearGradient id="a" x1="0" x2="57.812" y1="1" y2="91.804" gradientUnits="userSpaceOnUse"><stop stop-color="#89B804"/><stop offset=".46" stop-color="#618202"/><stop offset="1" stop-color="#475F03"/></linearGradient><linearGradient id="b" x1="31" x2="31" y1="1" y2="91" gradientUnits="userSpaceOnUse"><stop stop-opacity="0"/><stop offset="1" stop-color="#fff" stop-opacity=".3"/></linearGradient></defs></svg>