<svg xmlns="http://www.w3.org/2000/svg" width="62" height="91" fill="none"><rect width="60" height="88" x="1" y="2" fill="url(#a)" stroke="url(#b)" stroke-width="2" rx="5"/><path fill="#fff" d="M17.36 31.223c0 .765-.26 1.506-.735 2.093a3.143 3.143 0 0 1-1.863 1.12 3.077 3.077 0 0 1-2.126-.374 3.237 3.237 0 0 1-1.399-1.693c-.002 2.148.131 3.577 2.105 4.656H7.967c1.974-1.079 2.108-2.507 2.105-4.656a3.253 3.253 0 0 1-1.099 1.491 3.084 3.084 0 0 1-3.473.168 3.226 3.226 0 0 1-1.229-1.378 3.356 3.356 0 0 1-.292-1.849c.08-.632.337-1.227.74-1.71a3.151 3.151 0 0 1 1.53-1.008 3.066 3.066 0 0 1 1.815.027 3.353 3.353 0 0 1-.214-3.38c.267-.528.67-.972 1.164-1.282a3.089 3.089 0 0 1 1.64-.473c.579 0 1.146.163 1.64.473.495.31.898.754 1.165 1.283a3.353 3.353 0 0 1-.214 3.38 3.07 3.07 0 0 1 1.466-.108c.49.083.955.285 1.355.588.401.303.727.7.952 1.156.225.458.342.963.342 1.476ZM8.655 15.515c.09.499.295.884.612 1.156.329.26.765.391 1.309.391.703 0 1.213-.289 1.53-.867.317-.59.476-1.575.476-2.958-.26.363-.629.646-1.105.85a3.722 3.722 0 0 1-1.513.306c-.725 0-1.383-.147-1.972-.442a3.411 3.411 0 0 1-1.377-1.343c-.34-.6-.51-1.326-.51-2.176 0-1.258.374-2.255 1.122-2.992.748-.748 1.768-1.122 3.06-1.122 1.61 0 2.743.516 3.4 1.547.669 1.031 1.003 2.584 1.003 4.658 0 1.473-.13 2.68-.391 3.621-.25.94-.686 1.655-1.309 2.142-.612.487-1.45.731-2.516.731-.839 0-1.553-.159-2.142-.476-.59-.329-1.043-.754-1.36-1.275a4.047 4.047 0 0 1-.527-1.751h2.21Zm1.802-3.06c.59 0 1.054-.181 1.394-.544.34-.363.51-.85.51-1.462 0-.669-.181-1.184-.544-1.547-.351-.374-.833-.561-1.445-.561-.612 0-1.1.193-1.462.578-.351.374-.527.873-.527 1.496 0 .6.17 1.094.51 1.479.351.374.873.561 1.564.561ZM32.514 69.714c.38 1.9 1.197 3.344 2.451 4.332s2.945 1.482 5.073 1.482c2.698 0 4.674-1.064 5.928-3.192 1.254-2.128 1.881-5.757 1.881-10.887-.912 1.292-2.204 2.299-3.876 3.021-1.634.684-3.42 1.026-5.358 1.026-2.47 0-4.712-.494-6.726-1.482-2.014-1.026-3.61-2.527-4.788-4.503-1.14-2.014-1.71-4.446-1.71-7.296 0-4.18 1.216-7.505 3.648-9.975 2.47-2.508 5.852-3.762 10.146-3.762 5.168 0 8.835 1.729 11.001 5.187 2.204 3.42 3.306 8.683 3.306 15.789 0 4.902-.418 8.911-1.254 12.027-.798 3.116-2.204 5.472-4.218 7.068-2.014 1.596-4.807 2.394-8.379 2.394-4.066 0-7.201-1.064-9.405-3.192-2.204-2.128-3.439-4.807-3.705-8.037h5.985Zm7.239-9.69c2.28 0 4.066-.703 5.358-2.109 1.33-1.444 1.995-3.344 1.995-5.7 0-2.622-.703-4.655-2.109-6.099-1.368-1.482-3.249-2.223-5.643-2.223-2.394 0-4.294.76-5.7 2.28-1.368 1.482-2.052 3.439-2.052 5.871 0 2.318.665 4.237 1.995 5.757 1.368 1.482 3.42 2.223 6.156 2.223Z"/><defs><linearGradient id="a" x1="0" x2="57.812" y1="1" y2="91.804" gradientUnits="userSpaceOnUse"><stop stop-color="#89B804"/><stop offset=".46" stop-color="#618202"/><stop offset="1" stop-color="#475F03"/></linearGradient><linearGradient id="b" x1="31" x2="31" y1="1" y2="91" gradientUnits="userSpaceOnUse"><stop stop-opacity="0"/><stop offset="1" stop-color="#fff" stop-opacity=".3"/></linearGradient></defs></svg>