<svg xmlns="http://www.w3.org/2000/svg" width="62" height="91" fill="none"><rect width="60" height="88" x="1" y="2" fill="url(#a)" stroke="url(#b)" stroke-width="2" rx="5"/><path fill="#fff" d="M17.36 31.223a3.33 3.33 0 0 1-.735 2.093 3.143 3.143 0 0 1-1.863 1.12 3.078 3.078 0 0 1-2.126-.374 3.238 3.238 0 0 1-1.399-1.693c-.002 2.148.131 3.577 2.105 4.656H7.967c1.974-1.079 2.108-2.507 2.105-4.656a3.254 3.254 0 0 1-1.099 1.491 3.083 3.083 0 0 1-3.473.168 3.225 3.225 0 0 1-1.229-1.378 3.356 3.356 0 0 1-.292-1.849c.08-.632.337-1.227.74-1.71a3.152 3.152 0 0 1 1.53-1.008 3.067 3.067 0 0 1 1.815.027 3.353 3.353 0 0 1-.214-3.38c.267-.528.67-.972 1.164-1.282a3.089 3.089 0 0 1 1.64-.473c.579 0 1.146.163 1.64.473.495.31.898.754 1.165 1.283a3.353 3.353 0 0 1-.214 3.38 3.069 3.069 0 0 1 1.466-.108c.49.083.955.285 1.355.588.401.303.727.7.952 1.156.225.458.342.963.342 1.476ZM12.327 9.701c-.113-.476-.312-.833-.595-1.071-.272-.238-.669-.357-1.19-.357-.782 0-1.36.317-1.734.952-.363.623-.55 1.643-.561 3.06.272-.453.669-.805 1.19-1.054a3.747 3.747 0 0 1 1.7-.391c.737 0 1.388.159 1.955.476a3.286 3.286 0 0 1 1.326 1.394c.317.6.476 1.326.476 2.176 0 .805-.164 1.524-.493 2.159a3.44 3.44 0 0 1-1.411 1.462c-.623.351-1.366.527-2.227.527-1.179 0-2.108-.26-2.788-.782-.669-.521-1.139-1.247-1.411-2.176-.26-.94-.391-2.097-.391-3.468 0-2.074.357-3.638 1.071-4.692.714-1.065 1.842-1.598 3.383-1.598 1.19 0 2.114.323 2.771.969.657.646 1.037 1.45 1.139 2.414h-2.21Zm-1.734 3.094c-.6 0-1.105.176-1.513.527-.408.351-.612.861-.612 1.53s.187 1.196.561 1.581c.385.385.924.578 1.615.578.612 0 1.094-.187 1.445-.561.363-.374.544-.878.544-1.513 0-.657-.176-1.179-.527-1.564-.34-.385-.844-.578-1.513-.578ZM45.764 48.08c-.418-1.748-1.178-3.059-2.28-3.933-1.102-.874-2.641-1.311-4.617-1.311-3.002 0-5.244 1.159-6.726 3.477-1.482 2.28-2.261 6.08-2.337 11.4.988-1.672 2.432-2.964 4.332-3.876 1.9-.912 3.952-1.368 6.156-1.368 2.508 0 4.712.551 6.612 1.653 1.938 1.064 3.439 2.622 4.503 4.674 1.102 2.052 1.653 4.503 1.653 7.353 0 2.66-.532 5.035-1.596 7.125-1.026 2.09-2.565 3.743-4.617 4.959C44.795 79.411 42.325 80 39.437 80c-3.914 0-6.992-.855-9.234-2.565-2.204-1.748-3.762-4.199-4.674-7.353-.874-3.154-1.311-7.087-1.311-11.799 0-13.908 4.902-20.862 14.706-20.862 3.8 0 6.783 1.026 8.949 3.078 2.204 2.052 3.496 4.579 3.876 7.581h-5.985Zm-6.897 9.861c-2.318 0-4.294.703-5.928 2.109-1.596 1.368-2.394 3.363-2.394 5.985 0 2.622.741 4.712 2.223 6.27 1.52 1.52 3.629 2.28 6.327 2.28 2.394 0 4.275-.741 5.643-2.223 1.406-1.482 2.109-3.458 2.109-5.928 0-2.584-.684-4.636-2.052-6.156-1.33-1.558-3.306-2.337-5.928-2.337Z"/><defs><linearGradient id="a" x1="0" x2="57.812" y1="1" y2="91.804" gradientUnits="userSpaceOnUse"><stop stop-color="#89B804"/><stop offset=".46" stop-color="#618202"/><stop offset="1" stop-color="#475F03"/></linearGradient><linearGradient id="b" x1="31" x2="31" y1="1" y2="91" gradientUnits="userSpaceOnUse"><stop stop-opacity="0"/><stop offset="1" stop-color="#fff" stop-opacity=".3"/></linearGradient></defs></svg>