<svg xmlns="http://www.w3.org/2000/svg" width="62" height="91" fill="none"><rect width="60" height="88" x="1" y="2" fill="url(#a)" stroke="url(#b)" stroke-width="2" rx="5"/><path fill="#fff" d="M17.36 31.223a3.33 3.33 0 0 1-.735 2.093 3.143 3.143 0 0 1-1.863 1.12 3.078 3.078 0 0 1-2.126-.374 3.238 3.238 0 0 1-1.399-1.693c-.002 2.148.131 3.577 2.105 4.656H7.967c1.974-1.079 2.108-2.507 2.105-4.656a3.254 3.254 0 0 1-1.099 1.491 3.083 3.083 0 0 1-3.473.168 3.225 3.225 0 0 1-1.229-1.378 3.356 3.356 0 0 1-.292-1.849c.08-.632.337-1.227.74-1.71a3.152 3.152 0 0 1 1.53-1.008 3.067 3.067 0 0 1 1.815.027 3.353 3.353 0 0 1-.214-3.38c.267-.528.67-.972 1.164-1.282a3.089 3.089 0 0 1 1.64-.473c.579 0 1.146.163 1.64.473.495.31.898.754 1.165 1.283a3.353 3.353 0 0 1-.214 3.38 3.069 3.069 0 0 1 1.466-.108c.49.083.955.285 1.355.588.401.303.727.7.952 1.156.225.458.342.963.342 1.476ZM14.231 8.664H8.723v2.907c.238-.295.578-.533 1.02-.714a3.492 3.492 0 0 1 1.411-.289c.907 0 1.649.198 2.227.595.578.397.997.907 1.258 1.53.26.612.391 1.27.391 1.972 0 1.303-.374 2.352-1.122 3.145-.737.793-1.79 1.19-3.162 1.19-1.292 0-2.323-.323-3.094-.969-.77-.646-1.207-1.49-1.309-2.533h2.312c.102.453.329.816.68 1.088.363.272.822.408 1.377.408.669 0 1.173-.21 1.513-.629.34-.42.51-.975.51-1.666 0-.703-.176-1.235-.527-1.598-.34-.374-.844-.561-1.513-.561-.476 0-.873.119-1.19.357a1.947 1.947 0 0 0-.68.952H6.547V6.573h7.684v2.091ZM51.21 44.033H32.115v11.343c.798-1.064 1.976-1.957 3.534-2.679a12.167 12.167 0 0 1 5.073-1.083c3.192 0 5.776.684 7.752 2.052 2.014 1.368 3.439 3.097 4.275 5.187a16.966 16.966 0 0 1 1.311 6.612c0 2.812-.551 5.32-1.653 7.524-1.064 2.166-2.679 3.876-4.845 5.13C45.434 79.373 42.812 80 39.696 80c-4.142 0-7.467-1.026-9.975-3.078-2.508-2.052-4.009-4.769-4.503-8.151h6.327c.418 1.786 1.349 3.211 2.793 4.275 1.444 1.026 3.249 1.539 5.415 1.539 2.698 0 4.712-.817 6.042-2.451 1.368-1.634 2.052-3.8 2.052-6.498 0-2.736-.684-4.826-2.052-6.27-1.368-1.482-3.382-2.223-6.042-2.223-1.862 0-3.439.475-4.731 1.425-1.254.912-2.166 2.166-2.736 3.762H26.13V38.333h25.08v5.7Z"/><defs><linearGradient id="a" x1="0" x2="57.812" y1="1" y2="91.804" gradientUnits="userSpaceOnUse"><stop stop-color="#89B804"/><stop offset=".46" stop-color="#618202"/><stop offset="1" stop-color="#475F03"/></linearGradient><linearGradient id="b" x1="31" x2="31" y1="1" y2="91" gradientUnits="userSpaceOnUse"><stop stop-opacity="0"/><stop offset="1" stop-color="#fff" stop-opacity=".3"/></linearGradient></defs></svg>