<svg xmlns="http://www.w3.org/2000/svg" width="62" height="91" fill="none"><rect width="60" height="88" x="1" y="2" fill="url(#a)" stroke="url(#b)" stroke-width="2" rx="5"/><path fill="#fff" d="M17.36 31.223c0 .765-.26 1.506-.735 2.093a3.143 3.143 0 0 1-1.863 1.12 3.077 3.077 0 0 1-2.126-.374 3.237 3.237 0 0 1-1.399-1.693c-.002 2.148.131 3.577 2.105 4.656H7.967c1.974-1.079 2.108-2.507 2.105-4.656a3.253 3.253 0 0 1-1.099 1.491 3.084 3.084 0 0 1-3.473.168 3.226 3.226 0 0 1-1.229-1.378 3.356 3.356 0 0 1-.292-1.849c.08-.632.337-1.227.74-1.71a3.151 3.151 0 0 1 1.53-1.008 3.066 3.066 0 0 1 1.815.027 3.353 3.353 0 0 1-.214-3.38c.267-.528.67-.972 1.164-1.282a3.089 3.089 0 0 1 1.64-.473c.579 0 1.146.163 1.64.473.495.31.898.754 1.165 1.283a3.353 3.353 0 0 1-.214 3.38 3.07 3.07 0 0 1 1.466-.108c.49.083.955.285 1.355.588.401.303.727.7.952 1.156.225.458.342.963.342 1.476ZM3.612 8.8V6.607h4.097V19H5.261V8.8H3.612Zm4.408 3.842c0-1.96.352-3.496 1.054-4.607.714-1.11 1.893-1.666 3.536-1.666 1.644 0 2.817.555 3.52 1.666.713 1.11 1.07 2.646 1.07 4.607 0 1.972-.357 3.519-1.07 4.641-.703 1.122-1.876 1.683-3.52 1.683-1.643 0-2.822-.561-3.536-1.683-.702-1.122-1.054-2.669-1.054-4.641Zm6.834 0c0-.839-.056-1.541-.17-2.108-.102-.578-.317-1.048-.646-1.411-.317-.363-.793-.544-1.428-.544-.634 0-1.116.181-1.445.544-.317.363-.532.833-.646 1.411-.102.567-.153 1.27-.153 2.108 0 .861.051 1.587.153 2.176.102.578.317 1.048.646 1.411.329.351.81.527 1.445.527s1.117-.176 1.445-.527c.329-.363.544-.833.646-1.411.102-.59.153-1.315.153-2.176ZM13.565 48.375v-5.928h11.856V84h-6.555V48.375h-5.301Zm13.943 14.307c0-6.574 1.102-11.704 3.306-15.39 2.242-3.724 6.08-5.586 11.514-5.586 5.434 0 9.253 1.862 11.457 5.586 2.242 3.686 3.363 8.816 3.363 15.39 0 6.65-1.121 11.856-3.363 15.618-2.204 3.724-6.023 5.586-11.457 5.586-5.434 0-9.272-1.862-11.514-5.586-2.204-3.762-3.306-8.968-3.306-15.618Zm23.256 0c0-3.078-.21-5.681-.627-7.809-.38-2.128-1.178-3.857-2.394-5.187-1.216-1.368-3.021-2.052-5.415-2.052s-4.2.684-5.415 2.052c-1.216 1.33-2.033 3.059-2.451 5.187-.38 2.128-.57 4.731-.57 7.809 0 3.192.19 5.871.57 8.037.38 2.166 1.178 3.914 2.394 5.244 1.254 1.33 3.078 1.995 5.472 1.995 2.394 0 4.199-.665 5.415-1.995 1.254-1.33 2.07-3.078 2.45-5.244.38-2.166.57-4.845.57-8.037Z"/><defs><linearGradient id="a" x1="0" x2="57.812" y1="1" y2="91.804" gradientUnits="userSpaceOnUse"><stop stop-color="#89B804"/><stop offset=".46" stop-color="#618202"/><stop offset="1" stop-color="#475F03"/></linearGradient><linearGradient id="b" x1="31" x2="31" y1="1" y2="91" gradientUnits="userSpaceOnUse"><stop stop-opacity="0"/><stop offset="1" stop-color="#fff" stop-opacity=".3"/></linearGradient></defs></svg>