<svg xmlns="http://www.w3.org/2000/svg" width="62" height="90" fill="none"><rect width="60" height="88" x="1" y="1" fill="url(#a)" stroke="url(#b)" stroke-width="2" rx="5"/><path fill="#fff" d="M17.36 30.223c0 .765-.26 1.506-.735 2.093a3.143 3.143 0 0 1-1.863 1.12 3.077 3.077 0 0 1-2.126-.374 3.237 3.237 0 0 1-1.399-1.693c-.002 2.148.131 3.577 2.105 4.656H7.967c1.974-1.079 2.108-2.507 2.105-4.656a3.253 3.253 0 0 1-1.099 1.491 3.084 3.084 0 0 1-3.473.168 3.226 3.226 0 0 1-1.229-1.378 3.356 3.356 0 0 1-.292-1.849c.08-.632.337-1.227.74-1.71a3.151 3.151 0 0 1 1.53-1.008 3.066 3.066 0 0 1 1.815.027 3.353 3.353 0 0 1-.214-3.38c.267-.528.67-.972 1.164-1.282a3.089 3.089 0 0 1 1.64-.473c.579 0 1.146.163 1.64.473.495.31.898.754 1.165 1.283a3.353 3.353 0 0 1-.214 3.38 3.07 3.07 0 0 1 1.466-.108c.49.083.955.285 1.355.588.401.303.727.7.952 1.156.225.458.342.963.342 1.476ZM7.65 18H5.26L9.613 5.636h2.765L16.736 18h-2.39l-3.302-9.828h-.097L7.651 18Zm.08-4.848h6.52v1.8H7.73v-1.8ZM44.158 71.906H27.571L24.721 80h-6.783l14.193-39.672h7.524L53.848 80h-6.84l-2.85-8.094Zm-1.824-5.301-6.441-18.411-6.498 18.411h12.939Z"/><defs><linearGradient id="a" x1="0" x2="57.812" y1="0" y2="90.804" gradientUnits="userSpaceOnUse"><stop stop-color="#89B804"/><stop offset=".46" stop-color="#618202"/><stop offset="1" stop-color="#475F03"/></linearGradient><linearGradient id="b" x1="31" x2="31" y1="0" y2="90" gradientUnits="userSpaceOnUse"><stop stop-opacity="0"/><stop offset="1" stop-color="#fff" stop-opacity=".3"/></linearGradient></defs></svg>